<?xml version="1.0" encoding="utf-8"?>
<!-- Generator: Adobe Illustrator 19.2.1, SVG Export Plug-In . SVG Version: 6.00 Build 0)  -->
<svg version="1.1" id="Layer_1" xmlns="http://www.w3.org/2000/svg" xmlns:xlink="http://www.w3.org/1999/xlink" x="0px" y="0px"
	 viewBox="0 0 310.8 310.8" style="enable-background:new 0 0 310.8 310.8;" xml:space="preserve">
<style type="text/css">
	.st0{fill:#F2F1F0;stroke:#AAA8A8;stroke-width:10;stroke-miterlimit:10;}
	.st1{fill:#ACAAAA;}
</style>
<title>bolt</title>
<circle class="st0" cx="155.4" cy="155.4" r="150.4"/>
<path class="st1" d="M124.8,261c-0.6,0-1.2-0.1-1.8-0.4c-1.7-0.8-2.6-2.7-2.2-4.6l18.1-81.8l-40.1-15.1c-1.2-0.5-2.2-1.5-2.5-2.8
	c-0.3-1.3,0-2.6,0.8-3.7l85.8-101.5c1.4-1.7,4-2,5.7-0.5c1.2,1,1.7,2.5,1.4,4l-18.1,81.8l40.1,15.1c1.2,0.5,2.2,1.5,2.5,2.8
	c0.3,1.3,0,2.6-0.8,3.7l-85.8,101.6C127.1,260.5,126,261,124.8,261z M107.1,153.6l37.9,14.3c1.9,0.7,3,2.7,2.5,4.7l-15.3,69
	l71.3-84.4l-38-14.3c-1.9-0.7-3-2.7-2.5-4.7l15.3-69L107.1,153.6z"/>
</svg>
