<?xml version="1.0" encoding="utf-8"?>
<!-- Generator: Adobe Illustrator 19.2.1, SVG Export Plug-In . SVG Version: 6.00 Build 0)  -->
<svg version="1.1" id="Layer_1" xmlns="http://www.w3.org/2000/svg" xmlns:xlink="http://www.w3.org/1999/xlink" x="0px" y="0px"
	 viewBox="0 0 310.8 310.8" style="enable-background:new 0 0 310.8 310.8;" xml:space="preserve">
<style type="text/css">
	.st0{fill:#F2F1F0;stroke:#AAA8A8;stroke-width:10;stroke-miterlimit:10;}
	.st1{fill:#ABA9A8;}
</style>
<title>book</title>
<circle class="st0" cx="155.4" cy="155.4" r="150.4"/>
<path class="st1" d="M54.8,74.9c-2.4-0.1-4.4,1.8-4.5,4.3c0,0,0,0,0,0c0,0,0,0.1,0,0.1v127c0,1.4,0.7,2.7,1.8,3.5
	c0,0,7.6,5.5,17.8,11.5s22.9,12.6,34.2,15c10.3,2.1,23.1-1.5,33.9-5.1c6-2,11.8-4.3,17.5-7c1.4,0.6,7.6,3.4,17.3,6.5
	c10.6,3.5,23.3,6.9,33.4,5.8c10.9-1.2,23.6-8,34-14.3s18.6-12.3,18.6-12.3c1.1-0.8,1.8-2.1,1.8-3.5v-127c0-2.4-2-4.4-4.4-4.4
	c-0.9,0-1.8,0.3-2.6,0.8c0,0-7.3,5.3-17.2,11.1s-22.4,12.1-31.6,13.9c-6.6,1.4-19-1.4-29.2-4.9c-6.2-2.1-12.3-4.6-18.3-7.4
	c-1.2-0.6-2.6-0.6-3.8,0c-6,2.8-12.1,5.3-18.4,7.4c-10.2,3.5-22.6,6.2-29.2,4.9c-9.2-1.9-21.7-8.1-31.5-13.9S57.3,75.8,57.3,75.8
	C56.5,75.3,55.7,75,54.8,74.9L54.8,74.9L54.8,74.9z M251.7,87.3v116.6c-1.3,1-7,5.2-16.1,10.7c-10.1,6-22.7,12.2-30.5,13.1
	c-7,0.8-19.5-2.1-29.7-5.4s-18.3-6.8-18.3-6.8c-1.2-0.5-2.5-0.5-3.6,0.1c-6,2.8-12.1,5.3-18.4,7.4c-10.2,3.5-22.6,6.2-29.2,4.9
	c-9.2-1.9-21.7-8.1-31.5-13.9c-8.8-5.2-14-9-15.3-9.9V87.3c3.1,2.2,4.6,3.4,10.8,7c10.2,6,22.9,12.7,34.2,15
	c10.3,2.1,23.1-1.5,33.9-5.2c5.9-2,11.8-4.3,17.4-7c5.6,2.7,11.4,5,17.3,7c10.7,3.7,23.4,7.3,33.8,5.2c11.3-2.3,24.1-9,34.3-15
	C247,90.6,248.5,89.4,251.7,87.3L251.7,87.3L251.7,87.3z"/>
<path class="st1" d="M151,92.4v127h8.8v-127H151z"/>
<path class="st1" d="M201.4,105.5v26.3h8.8v-26.3H201.4z"/>
<path class="st1" d="M205.7,123c-1.2,0-2.3,0.5-3.1,1.3l-24.1,24.8c-0.8,0.8-1.2,1.9-1.2,3.1v49.6c0,2.4,2,4.4,4.4,4.4l0,0h48.2
	c2.4,0,4.4-2,4.4-4.4l0,0v-49.6c0-1.1-0.4-2.2-1.2-3.1l-24.1-24.8C208,123.5,206.9,123,205.7,123z M205.7,133.7l19.7,20.3v43.5H186
	V154L205.7,133.7z"/>
</svg>
