<?xml version="1.0" encoding="utf-8"?>
<!-- Generator: Adobe Illustrator 19.2.1, SVG Export Plug-In . SVG Version: 6.00 Build 0)  -->
<svg version="1.1" id="Layer_1" xmlns="http://www.w3.org/2000/svg" xmlns:xlink="http://www.w3.org/1999/xlink" x="0px" y="0px"
	 viewBox="0 0 310.8 310.8" style="enable-background:new 0 0 310.8 310.8;" xml:space="preserve">
<style type="text/css">
	.st0{fill:#F2F1F0;stroke:#AAA8A8;stroke-width:10;stroke-miterlimit:10;}
	.st1{fill:#ABA9A8;}
</style>
<title>chat-bubble</title>
<circle class="st0" cx="155.4" cy="155.4" r="150.4"/>
<path class="st1" d="M69,70.2c-2.1,0-3.8,1.7-3.8,3.8v172.8c0,2.1,1.7,3.8,3.8,3.8c0.9,0,1.7-0.3,2.4-0.8l55.3-44.3h115.2
	c2.1,0,3.8-1.7,3.8-3.8c0,0,0,0,0,0V73.9c0-2.1-1.7-3.8-3.8-3.8l0,0H69z M72.7,77.7h165.3v120.2H125.3c-0.9,0-1.7,0.3-2.4,0.8
	l-50.3,40.2L72.7,77.7L72.7,77.7L72.7,77.7z"/>
<path class="st1" d="M114.1,104c-2.1-0.1-3.9,1.4-4,3.5c-0.1,2.1,1.4,3.9,3.5,4c0.1,0,0.2,0,0.4,0h82.7c2.1,0.1,3.9-1.4,4-3.5
	s-1.4-3.9-3.5-4c-0.1,0-0.2,0-0.4,0H114.1z"/>
<path class="st1" d="M114.1,134c-2.1-0.1-3.9,1.4-4,3.5c-0.1,2.1,1.4,3.9,3.5,4c0.1,0,0.2,0,0.4,0h82.7c2.1,0.1,3.9-1.4,4-3.5
	s-1.4-3.9-3.5-4c-0.1,0-0.2,0-0.4,0H114.1z"/>
<path class="st1" d="M114.1,164.1c-2.1-0.1-3.9,1.4-4,3.5c-0.1,2.1,1.4,3.9,3.5,4c0.1,0,0.2,0,0.4,0h82.7c2.1,0.1,3.9-1.4,4-3.5
	c0.1-2.1-1.4-3.9-3.5-4c-0.1,0-0.2,0-0.4,0H114.1z"/>
</svg>
