<?xml version="1.0" encoding="utf-8"?>
<!-- Generator: Adobe Illustrator 19.2.1, SVG Export Plug-In . SVG Version: 6.00 Build 0)  -->
<svg version="1.1" id="Layer_1" xmlns="http://www.w3.org/2000/svg" xmlns:xlink="http://www.w3.org/1999/xlink" x="0px" y="0px"
	 viewBox="0 0 310.8 310.8" style="enable-background:new 0 0 310.8 310.8;" xml:space="preserve">
<style type="text/css">
	.st0{fill:#F2F1F0;stroke:#AAA8A8;stroke-width:10;stroke-miterlimit:10;}
	.st1{fill:#ABA9A9;}
</style>
<title>mouse</title>
<circle class="st0" cx="155.4" cy="155.4" r="150.4"/>
<path class="st1" d="M151.9,54.3c-36.1,0-65.4,29.2-65.4,65.4c0,0,0,0.1,0,0.1V191c0,36.1,29.2,65.4,65.4,65.4c0,0,0.1,0,0.1,0h6.9
	c36.1,0,65.4-29.2,65.4-65.4c0,0,0-0.1,0-0.1v-71.2c0-36.1-29.2-65.4-65.4-65.4c0,0-0.1,0-0.1,0L151.9,54.3L151.9,54.3z M151.9,63.5
	h6.9c30.9-0.1,56.1,24.8,56.3,55.7c0,0.2,0,0.3,0,0.5V191c0.2,30.9-24.8,56.1-55.7,56.3c-0.2,0-0.4,0-0.5,0h-6.9
	c-30.9,0.1-56.1-24.8-56.3-55.7c0-0.2,0-0.3,0-0.5v-71.2c-0.1-30.9,24.8-56.1,55.7-56.3C151.6,63.5,151.8,63.5,151.9,63.5z"/>
<path class="st1" d="M95.7,141.6c-2.5,0-4.6,2-4.7,4.5s2,4.6,4.5,4.7H215c2.5,0,4.6-2,4.7-4.5s-2-4.6-4.5-4.7l0,0H95.7z"/>
<path class="st1" d="M155.3,114c-2.5,0-4.6,2.1-4.5,4.7c0,0,0,0,0,0l0,0v27.4c0,2.5,2,4.6,4.5,4.7c2.5,0,4.6-2,4.7-4.5
	c0,0,0-0.1,0-0.1v-27.4c0-2.5-2-4.6-4.5-4.7c0,0,0,0,0,0H155.3L155.3,114z"/>
<path class="st1" d="M155.4,86.5c-10.1,0-18.4,8.2-18.4,18.4s8.2,18.4,18.4,18.4s18.4-8.2,18.4-18.4v0
	C173.7,94.7,165.5,86.5,155.4,86.5z M155.4,95.7c5.1,0,9.2,4.1,9.2,9.2s-4.1,9.2-9.2,9.2c-5.1,0-9.2-4.1-9.2-9.2c0,0,0,0,0,0
	c-0.1-5,3.9-9.1,9-9.2C155.2,95.7,155.3,95.7,155.4,95.7z"/>
<path class="st1" d="M155.3,58.9c-2.5,0-4.6,2.1-4.5,4.7c0,0,0,0,0,0l0,0V91c0,2.5,2,4.6,4.5,4.7s4.6-2,4.7-4.5l0,0c0,0,0-0.1,0-0.1
	V63.6c0-2.5-2-4.6-4.5-4.7c0,0,0,0,0,0L155.3,58.9L155.3,58.9z"/>
</svg>
