<?xml version="1.0" encoding="utf-8"?>
<!-- Generator: Adobe Illustrator 19.2.1, SVG Export Plug-In . SVG Version: 6.00 Build 0)  -->
<svg version="1.1" id="Layer_1" xmlns="http://www.w3.org/2000/svg" xmlns:xlink="http://www.w3.org/1999/xlink" x="0px" y="0px"
	 viewBox="0 0 310.8 310.8" style="enable-background:new 0 0 310.8 310.8;" xml:space="preserve">
<style type="text/css">
	.st0{fill:#F2F1F0;stroke:#AAA8A8;stroke-width:10;stroke-miterlimit:10;}
	.st1{fill:#AAA8A8;}
</style>
<title>pencil</title>
<circle class="st0" cx="155.4" cy="155.4" r="150.4"/>
<path class="st1" d="M76.5,202.7c-2.2,0-3.9,1.8-3.9,4c0,1.1,0.4,2.1,1.2,2.8l27.5,27.5c1.6,1.5,4.1,1.5,5.6-0.1
	c1.4-1.5,1.5-3.8,0.1-5.3l-0.1-0.1l-27.5-27.5C78.5,203.2,77.5,202.7,76.5,202.7z"/>
<path class="st1" d="M171.1,60.7c-1,0-2,0.4-2.7,1.1l-78.9,75c-0.5,0.5-0.9,1.2-1.1,1.9L60.8,245.1c-0.5,2.1,0.7,4.3,2.8,4.8
	c0.6,0.2,1.3,0.2,2,0l106.5-27.6c0.7-0.2,1.4-0.6,1.9-1.1l74.9-78.9c1.5-1.6,1.4-4.1-0.2-5.6c-1.5-1.4-3.8-1.4-5.3,0l-0.2,0.2
	L169,215l-98.9,25.6l25.6-98.9l78.1-74.2c1.6-1.5,1.7-4,0.2-5.6C173.3,61.1,172.2,60.7,171.1,60.7L171.1,60.7L171.1,60.7z"/>
<path class="st1" d="M198.6,68.6c-1,0-2,0.5-2.7,1.2l-74.9,74.9c-1.6,1.4-1.8,3.9-0.3,5.6s3.9,1.8,5.6,0.3c0.1-0.1,0.2-0.2,0.2-0.2
	l0.1-0.1l74.9-74.9c1.6-1.5,1.6-4,0.1-5.6C200.8,69,199.7,68.5,198.6,68.6L198.6,68.6L198.6,68.6z"/>
<path class="st1" d="M238.1,108c-1,0-2,0.5-2.7,1.2l-74.9,74.9c-1.6,1.4-1.8,3.9-0.3,5.6c1.4,1.6,3.9,1.8,5.6,0.3
	c0.1-0.1,0.2-0.2,0.2-0.2l0.1-0.1l74.9-74.9c1.6-1.5,1.6-4,0.1-5.6C240.2,108.4,239.2,108,238.1,108L238.1,108L238.1,108z"/>
<path class="st1" d="M92.1,135.7c-2.2,0.1-3.9,2-3.7,4.1c0.1,1.7,1.3,3.2,3,3.6l29.2,7.3l7.3,29.2c0.4,1.4,1.5,2.5,2.9,2.9l29.2,7.3
	l7.3,29.2c0.5,2.1,2.6,3.5,4.7,3c2.1-0.5,3.5-2.6,3-4.7c0-0.1,0-0.1-0.1-0.2l0,0l-7.9-31.5c-0.4-1.4-1.5-2.5-2.9-2.9l-29.2-7.3
	l-7.3-29.2c-0.4-1.4-1.5-2.5-2.9-2.9l-31.5-7.9C92.9,135.7,92.5,135.6,92.1,135.7L92.1,135.7L92.1,135.7z"/>
</svg>
