<?xml version="1.0" standalone="no"?>
<!DOCTYPE svg PUBLIC "-//W3C//DTD SVG 20010904//EN"
 "http://www.w3.org/TR/2001/REC-SVG-20010904/DTD/svg10.dtd">
<svg version="1.0" xmlns="http://www.w3.org/2000/svg"
 width="700.000000pt" height="700.000000pt" viewBox="0 0 700.000000 700.000000"
 preserveAspectRatio="xMidYMid meet">
<metadata>
Created by potrace 1.11, written by Peter Selinger 2001-2013
</metadata>
<g transform="translate(0.000000,700.000000) scale(0.100000,-0.100000)"
fill="#000000" stroke="none">
<path d="M4855 6893 c-238 -25 -537 -95 -680 -158 -16 -7 -55 -23 -85 -35
-132 -52 -389 -195 -480 -268 -68 -54 -173 -164 -233 -245 -47 -63 -187 -282
-187 -292 0 -13 -258 -444 -338 -565 -202 -307 -468 -649 -684 -882 -45 -48
-161 -177 -188 -208 -12 -14 -29 -34 -39 -45 -120 -140 -327 -452 -366 -550
-50 -127 -55 -242 -12 -287 7 -7 46 -51 87 -98 209 -240 268 -291 408 -358 70
-34 84 -37 162 -37 73 1 93 5 143 30 62 31 158 117 228 205 46 58 128 182 304
458 57 89 113 175 125 190 101 130 127 163 164 202 37 39 119 116 206 194 59
53 212 176 300 242 244 183 465 316 790 477 205 100 389 202 410 227 3 3 19
16 35 28 180 137 332 386 446 733 21 65 41 128 44 141 19 83 46 218 49 243 2
17 8 57 12 90 13 95 10 335 -4 382 -28 93 -96 152 -209 179 -47 11 -323 16
-408 7z"/>
<path d="M5059 4066 c-2 -2 -29 -6 -59 -9 -255 -28 -729 -146 -875 -219 -111
-56 -279 -175 -357 -255 -89 -90 -130 -142 -198 -251 -40 -66 -150 -283 -150
-298 0 -2 -8 -23 -19 -47 -10 -23 -31 -71 -46 -107 -33 -76 -123 -260 -153
-310 -12 -19 -31 -53 -43 -75 -70 -129 -246 -377 -402 -569 -33 -39 -75 -91
-95 -116 -102 -127 -157 -172 -537 -440 -241 -170 -403 -287 -415 -300 -3 -3
-27 -22 -53 -44 -74 -59 -105 -96 -139 -164 -27 -54 -31 -73 -31 -140 1 -89
19 -138 103 -267 102 -156 304 -320 459 -372 83 -28 194 -26 261 4 36 16 312
202 330 223 3 3 25 21 50 40 61 47 65 50 145 115 69 56 158 131 179 150 6 6
43 37 81 70 39 33 72 62 75 65 3 3 97 84 210 180 254 217 259 221 279 241 49
47 320 264 408 325 91 64 245 159 376 233 47 26 260 166 291 190 272 217 465
494 571 816 40 120 79 284 91 380 3 22 7 51 10 65 12 76 19 241 19 440 -1 259
-11 313 -71 380 -45 50 -105 70 -209 70 -45 0 -84 -2 -86 -4z"/>
</g>
</svg>
