<?xml version="1.0" encoding="utf-8"?>
<!-- Generator: Adobe Illustrator 19.2.1, SVG Export Plug-In . SVG Version: 6.00 Build 0)  -->
<svg version="1.1" id="Layer_1" xmlns="http://www.w3.org/2000/svg" xmlns:xlink="http://www.w3.org/1999/xlink" x="0px" y="0px"
	 viewBox="0 0 1500 1500" style="enable-background:new 0 0 1500 1500;" xml:space="preserve">
<style type="text/css">
	.st0{fill:#397434;}
	.st1{fill:#B5D96D;}
	.st2{fill:#495F99;}
	.st3{opacity:0.5;fill:#495F99;}
</style>
<title>logo-color with under construction</title>
<path class="st0" d="M648.3,669.1c-4-0.8-8.1-1.6-12.1-2.6c-22.5-5.5-43.5-14.3-62.4-27.8c-25.9-18.3-42.6-42.8-50.3-73.6
	c-1.3-5.2-2-10.4-1.1-15.8c1.1-6.9,6-10.5,12.9-9.8c6.4,0.7,12,3.3,17.4,6.6c10.2,6.2,18.7,14.8,24.6,25.2
	c7.1,12.6,15.6,24.3,24.3,35.8c15.1,20,30.4,39.9,45.6,59.8l1.3,1.7L648.3,669.1z"/>
<path class="st1" d="M503.2,357.8c8,4.7,15.8,9.3,23.7,13.8c20.8,12,41.7,23.9,63.2,34.4c4,1.9,8,3.7,12.1,5.4
	c12.3,5.3,22.5,14.6,29.1,26.2c1.9,3,2.9,6.5,3.1,10c0.3,3.9-1.9,7.5-5.5,9c-4.3,2-9,2.3-13.6,1.9c-29.9-2.4-55-14.7-75.5-36.5
	c-17-18.1-28.7-39.4-36.4-62.9c-0.1-0.3-0.2-0.6-0.2-0.9C503.2,358,503.2,357.9,503.2,357.8z"/>
<path class="st0" d="M702.4,612.9c-6.2-0.2-12.4-0.2-18.6-0.6c-14.3-0.9-28.4-3.8-42-8.4c-18.6-6.4-35.3-16-48.8-30.5
	c-9.5-10.2-17.2-21.6-22-34.8c-0.9-2.5-1.4-5.1-1.6-7.8c-0.5-6.1,3-10.3,9.1-11.1c5.5-0.7,10.8,0.4,16,2.2
	c10.4,3.4,19.7,9.5,27,17.6c9.7,10.9,20.6,20.7,31.6,30.3c16,14,32.2,27.7,48.2,41.5l1.1,1L702.4,612.9z"/>
<path class="st1" d="M580.3,332.6l5.2,4c21,16,42.1,31.9,64.1,46.5c4.6,3,9.5,5.7,14.1,8.6c11.4,7.2,19.6,17,23.5,30
	c0.5,2,0.7,4.1,0.4,6.2c-0.5,3.9-3,6-6.7,7c-4.6,1.2-9.2,0.6-13.8-0.5c-26.2-6-46.9-20.1-62.3-42.1c-12.5-17.8-20.4-37.6-24.5-59
	C580.4,333.2,580.4,333,580.3,332.6z"/>
<path class="st0" d="M738.6,580.2c-5,0-9.7,0.2-14.4,0c-14.7-0.7-29.3-3.7-43.2-8.7c-18.8-6.9-35-17.6-47.2-33.6
	c-5.5-7.3-10.5-14.9-13.6-23.6c-0.8-2.4-1.4-4.8-1.6-7.3c-0.6-5.6,2.6-9.6,8.3-10.3s11.1,0.7,16.3,2.7c8.7,3.4,16.4,8.7,22.8,15.5
	c8.7,9.1,17.9,17.8,27.3,26.2c14.5,12.9,29.3,25.3,44,38L738.6,580.2z"/>
<path class="st1" d="M630.3,311.1c2.1,1.6,4,3.1,5.9,4.5c19.3,14.8,38.5,29.6,58.8,43c3.3,2.2,6.8,4.1,10.1,6.2
	c10.2,6.4,17.5,15.2,21.1,26.8c0.4,1.2,0.6,2.5,0.6,3.8c0.2,5.1-2.5,8.1-7.5,8.8c-4.8,0.7-9.3-0.2-13.9-1.5
	c-25.7-6.9-44.7-22.4-58.1-45.2c-8.1-13.8-13.8-28.9-16.8-44.7C630.4,312.4,630.4,311.9,630.3,311.1z"/>
<path class="st0" d="M778.1,557.3c-5.5-0.2-11.1-0.2-16.7-0.6c-12.6-1-25.1-3.8-36.9-8.3c-23.2-9-40.5-24.5-51.1-47.2
	c-1.3-2.9-2.2-5.9-2.8-9.1c-1.1-6.3,2.3-10.2,8.7-10.4s12.2,1.8,17.8,4.5c5.9,2.9,11.2,6.8,15.6,11.8c8.8,9.8,18.7,18.6,28.7,27.2
	c11.8,10.3,23.7,20.4,35.6,30.5l1.2,1L778.1,557.3z"/>
<path class="st1" d="M691.2,295c0.3,0.5,0.7,1,1.1,1.5c15.4,14.8,30.8,29.7,46.3,44.4c3.9,3.7,8.3,7,12.5,10.4
	c8,6.3,13.5,15.1,15.8,25c0.2,1.1,0.4,2.2,0.4,3.2c0.2,5.8-3.1,9.1-9,8.7c-4.1-0.4-8-1.4-11.7-3.1c-22.8-9.5-38-26.5-47.1-49.2
	c-4.8-12-7.7-24.7-8.7-37.6c-0.1-1,0-2,0-3L691.2,295z"/>
<path class="st0" d="M828.7,510.7c-3.4,1-6.3,2-9.3,2.8c-11.5,3.1-23.5,4.5-35.4,4.1c-22.9-0.8-42.7-8.7-58.7-25.4
	c-2.5-2.6-4.7-5.6-6.5-8.8c-3-5.5-1-9.8,4.9-11.7c5.5-1.9,11.2-1.5,16.9-0.6s11,3.3,16.1,6c11.4,6,23,11.7,34.7,17.2
	c11.6,5.4,23.4,10.3,35.2,15.4L828.7,510.7z"/>
<path class="st1" d="M731.8,274.2l2.2,2.7c12.5,15.1,25.1,30.2,38.6,44.5c2.8,2.9,5.7,5.7,8.6,8.5c6.5,6.3,10.7,14.5,12,23.5
	c0.1,0.8,0.1,1.7,0.1,2.5c-0.1,6-3.7,9.1-9.5,7.6c-3.6-0.9-7-2.3-10.2-4.1c-19.6-10.6-31.4-27.3-37.5-48.4
	c-3.2-11.2-4.7-22.9-4.4-34.6C731.7,275.8,731.8,275.2,731.8,274.2z"/>
<path class="st0" d="M857.7,451.6c-1.7,1.4-3.1,2.6-4.5,3.7c-12.8,9.9-26.8,17.1-42.7,20.5c-15.9,3.4-32.5,1.4-47-5.9
	c-2.7-1.3-5.2-3.1-7.4-5.1c-3.2-3-3.1-6.6,0.1-9.6c2-1.9,4.3-3.4,6.8-4.5c7.7-3.5,15.7-4.2,24.1-2.9c7.9,1.1,16,1.8,24,2.2
	c15.2,0.7,30.3,1.1,45.5,1.6C856.8,451.6,857,451.6,857.7,451.6z"/>
<path class="st1" d="M760.6,240.1c0.4,0.7,0.8,1.2,1.1,1.8c9.8,15.7,19.6,31.3,29.5,47c1.6,2.6,3.7,4.9,5.5,7.4
	c5.4,7.3,8.2,15.4,7.3,24.5c-0.6,5.6-4.3,7.8-9.5,5.9c-1.6-0.5-3.1-1.3-4.5-2.2c-2.8-1.9-5.4-3.9-7.9-6.1
	c-12-10.4-18.8-23.7-21.8-39.1c-2.3-12.4-2.3-25.1,0-37.4c0-0.3,0.1-0.6,0.2-0.9S760.5,240.6,760.6,240.1z"/>
<path class="st0" d="M872.1,394.4c-2.3,3.6-4.4,7.4-6.9,10.9c-8,11.4-17.7,21.1-30,27.7c-11.5,6.2-24.7,8.8-37.8,7.3
	c-2.3-0.3-4.5-0.9-6.5-1.9c-3-1.4-4.1-4.2-2.8-7.2c1-2.4,2.5-4.6,4.2-6.5c5.1-5.3,11.4-8.6,18.7-10.5c9.8-2.6,19.5-5.7,29.1-8.9
	c10.2-3.4,20.2-7.2,30.3-10.9l1.3-0.5L872.1,394.4z"/>
<path class="st1" d="M868.6,206.4c-0.2,3-0.4,5.1-0.6,7.3c-0.4,4.2-2.4,8.1-5.4,11c-1.9,2-3.8,3.8-5.9,5.6c-3.3,2.7-6.3,5.8-8.7,9.3
	c-0.8,1.1-1.5,2.2-2.4,3.3c-3,3.7-5,8-6,12.6c-0.7,2.9-1.7,5.7-3,8.3c-2.1,4.2-4.6,5.2-9,3.5c-2.2-1-4.3-2.2-6.2-3.8
	c-2-1.5-2.8-4.2-1.9-6.6c0.9-3.2,2.2-6.4,3.7-9.4c5.3-9.3,9.2-19.3,11.7-29.6c3.4-14,13.8-20,26.6-23.3c3.2-0.8,5,0.4,5.8,3.7
	C868,201.2,868.3,204.2,868.6,206.4z"/>
<path class="st0" d="M879.9,254.2c-0.3,2.7-0.5,5.5-1,8.2c-0.7,4.4-2.8,8.5-6,11.6c-5.8,5.6-11,11.8-15.6,18.5
	c-1.7,2.5-3.2,5.1-4.8,7.7c-1.7,2.8-3.6,5.5-5.7,8c-2.8,3.2-5.5,3.8-9.4,2c-2.2-1.1-4.3-2.5-6.2-4.1c-1.7-1.3-2.3-3.7-1.3-5.7
	c0.9-2.1,2.1-4.1,3.5-5.9c1.8-2.3,4.1-4.2,6-6.4c1.2-1.3,2.3-2.7,3.1-4.3c2.1-4.4,3.9-8.9,5.5-13.4c1.1-3.3,1.4-6.8,2-10.2
	c0.3-1.5,0.7-2.9,1-4.4c1.1-4.4,3.7-8.4,7.5-11c3.8-2.8,7.7-5.3,12.3-6.6c3.8-1.1,5.3-0.3,6.8,3.3
	C879.2,245.5,879.7,249.8,879.9,254.2z"/>
<path class="st1" d="M796.9,210.2c1.2,5,2.4,9.8,3.6,14.5c3.5,13.6,6.8,27.3,11.6,40.5c1.9,5.2,3.5,10.3,3,15.8
	c-0.3,2.9-0.8,5.7-1.5,8.6c-0.3,1-0.7,1.9-1.3,2.7c-2,3.2-5,4-8.1,1.9c-1.9-1.3-3.6-2.8-5-4.6c-9.8-12-14.5-27.3-13.2-42.7
	c0.9-12.2,4.3-24.1,10-35C796.2,211.3,796.5,210.9,796.9,210.2z"/>
<path class="st0" d="M875.7,351.1c-0.8,1.9-1.5,3.9-2.3,5.7c-5.9,13.1-13.9,24.7-25.7,33.3c-9.8,7.2-21.7,11.1-33.8,11.1
	c-1.6,0-3.2-0.3-4.7-0.8c-3.1-1-4.4-3.4-3.5-6.5c0.6-2,1.6-4,2.8-5.7c3.9-5.3,9.2-9.3,15.2-11.8c9.5-4.1,18.9-8.6,28.2-13.3
	c7.4-3.7,14.6-7.7,22-11.6c0.5-0.3,1-0.5,1.5-0.8L875.7,351.1z"/>
<path class="st0" d="M872.3,303.5c-0.4,2.6-0.7,5.2-1.1,7.8c-2.2,11.9-6.5,22.9-14.1,32.5c-6.8,8.5-16.2,14.7-26.7,17.6
	c-1.4,0.4-2.8,0.5-4.2,0.5c-3.2,0-5.2-1.9-5-5.1c0.1-2,0.5-4,1.3-5.9c2.2-5.3,5.9-9.9,10.5-13.3c7.8-6.1,15.3-12.6,22.7-19.1
	c5.2-4.5,10.1-9.3,15.2-14c0.4-0.3,0.8-0.7,1.1-1L872.3,303.5z"/>
<path class="st1" d="M890.5,195.8c0.7-1.1,1.1-2.6,2-3.3c2.3-1.7,4.7-3.1,7.2-4.2c5.6-2.4,10.9-5.6,15.7-9.3
	c2.8-2.2,5.5-4.5,9.2-5.1c5.3-0.9,10.7-0.2,15.6,2c2.8,1.3,3.3,2.7,2,5.5c-1.7,3.6-4.3,6.8-7.5,9.3c-2.4,1.7-5.2,2.5-8.1,2.4
	c-5.9,0.2-11.7,1.3-17.2,3.4c-1.2,0.5-2.4,1.2-3.5,1.9c-2.1,1.4-4.1,3-6.3,4.3c-3.4,1.8-5.4,1.2-7.2-2.2
	C891.6,199,891,197.4,890.5,195.8z"/>
<path class="st0" d="M918.9,201.5c3,0.7,6.1,1.1,9.1,2c2.3,0.7,2.9,2,2.1,4.2c-3.1,8.1-7.7,14.6-17.1,15.8c-2.4,0.2-4.9,0.6-7.2,1.2
	c-4.8,1.4-9.6,3.1-14.4,4.6c-2.1,0.7-4.3,1.2-6.5,1.6c-1.5,0.2-3-0.4-3.8-1.7c-1.5-1.8-2.4-4.1-2.5-6.4c-0.1-1.8,1.1-3.3,2.8-3.7
	c2.8-0.8,5.7-1.3,8.5-1.9c1.4-0.2,2.8-0.6,4.2-1.2c4.6-2.1,8.9-5,12.6-8.6c2.5-2.5,5.3-4.9,9.1-5.4c1-0.1,2.1-0.2,3.1-0.2
	L918.9,201.5z"/>
<path class="st0" d="M944.7,194.6c0-3.6,1.3-4.6,4.9-4.1c0.7,0.1,1.4,0.2,2.1,0.4c4.7,1.7,9.2,0.7,13.8-0.7c0.5-0.2,1.1-0.4,1.6-0.6
	c5.2-2.2,9.5-0.3,13.5,3.1c1.7,1.4,1.8,2.4,0.2,3.9c-4.2,4.1-8.9,6.6-15,4.8c-4.6-1.4-9.5-2.1-14.3-2.1c-1,0-2-0.1-3-0.3
	C945.5,198.6,944.7,197.6,944.7,194.6z"/>
<path class="st1" d="M967.8,176.3c5.2,0,10.2-1.2,15.2-2.4c4.1-0.9,11.3,2.5,13.4,6.1c0.7,0.9,0.5,2.1-0.4,2.8c0,0,0,0,0,0
	c-3.8,3.2-7.9,5.6-13.1,3.6c-3.5-1.5-7.3-2.3-11.1-2.4c-1.6,0.1-3.2,0.2-4.8,0.5c-1.6,0.2-3.2,0.5-4.8,0.6c-1.3,0.1-2.5-0.9-2.6-2.2
	c-0.2-0.7-0.2-1.4-0.2-2.2c0.1-2.6,0.9-3.5,3.4-4.1c0.6-0.1,1.1-0.2,1.7-0.3C965.7,176.3,966.7,176.3,967.8,176.3z"/>
<path class="st2" d="M481.3,851.8c-8.5,0-8.9,0.3-8.9,5.7v25c0,18.6,0.9,21.1,10.8,22.1l5.1,0.5c1.1,0.7,0.7,3.9-0.4,4.4
	c-9.6-0.3-15.6-0.5-22.5-0.5c-7.6,0-13.6,0.3-20.5,0.5c-1.1-0.5-1.4-3.4-0.4-4.4l3-0.5c9.9-1.8,10.3-3.5,10.3-22.1v-63.8
	c0-18.6-1.2-21.6-10.5-22.3l-4.6-0.3c-1.1-0.7-0.7-3.9,0.4-4.4c8.7,0.2,14.7,0.5,22.3,0.5c6.9,0,12.9-0.2,20.5-0.5
	c1.1,0.5,1.4,3.7,0.4,4.4l-3.4,0.3c-10.3,1.1-10.6,3.7-10.6,22.3V839c0,5.5,0.4,5.7,8.9,5.7H532c8.5,0,8.9-0.2,8.9-5.7v-20.3
	c0-18.6-0.3-21.2-10.8-22.3l-3.4-0.3c-1.1-0.7-0.7-3.9,0.3-4.4c8.2,0.3,14.2,0.5,21.4,0.5c6.9,0,12.9-0.2,20.9-0.5
	c1.1,0.5,1.4,3.7,0.3,4.4l-3.7,0.3c-10.3,1.1-10.6,3.7-10.6,22.3v63.8c0,18.6,0.3,20.9,10.6,22.1l4.2,0.5c1.1,0.7,0.7,3.9-0.3,4.4
	c-8.5-0.3-14.5-0.5-21.4-0.5c-7.3,0-13.6,0.2-21.4,0.5c-1.1-0.5-1.4-3.4-0.3-4.4l3.4-0.5c10.8-1.8,10.8-3.5,10.8-22.1v-25
	c0-5.3-0.3-5.7-8.9-5.7L481.3,851.8L481.3,851.8z"/>
<path class="st2" d="M590.2,901.7c0-6,4.2-10.5,9.9-10.5c6,0,9.9,4.8,9.9,10.5s-3.9,9.7-9.9,9.7c-5.3,0.2-9.8-4-9.9-9.3
	C590.2,902,590.2,901.8,590.2,901.7z"/>
<path class="st2" d="M630.5,851.8c0-35.4,26.6-62.5,63-62.5c40.9,0,61.5,29.6,61.5,60.8c0,35.8-27.3,61.8-61.5,61.8
	C654.2,911.8,630.5,883.7,630.5,851.8z M737.2,855.5c0-29.2-12.9-60.8-46.8-60.8c-18.4,0-42.3,12.6-42.3,51.4
	c0,26.2,12.8,60.2,47.6,60.2C717.1,906.3,737.2,890.4,737.2,855.5z"/>
<path class="st2" d="M775.3,901.7c0-6,4.2-10.5,9.9-10.5c6,0,9.9,4.8,9.9,10.5s-3.9,9.7-9.9,9.7c-5.3,0.2-9.8-4-9.9-9.3
	C775.3,902,775.3,901.8,775.3,901.7z"/>
<path class="st2" d="M844.6,882.4c0,18.6,0.3,20.9,11.7,22.1l4.8,0.5c1.1,0.9,0.7,3.9-0.3,4.4c-10.1-0.3-15.9-0.5-23-0.5
	c-7.4,0-13.8,0.2-21.6,0.5c-1.1-0.5-1.4-3.4-0.3-4.4l3.7-0.5c10.3-1.4,10.6-3.5,10.6-22.1V817c0-15-0.3-18.1-8.3-19l-6.4-0.7
	c-1.2-1.1-1.1-3.7,0.3-4.4c9.4-1.2,20.4-1.4,35.1-1.4s25.7,2,34,7.1c8.2,5.1,14.2,14.3,14.2,26.6c0,16.3-10.1,24.4-17.7,28.2
	c-7.7,3.5-16,5.3-24.4,5.3c-1.2-0.5-1.2-3.2-0.2-3.5c19.1-3.5,26-14.3,26-29.8c0-17.2-10.1-28.3-28.5-28.3c-9.4,0-9.6,0.7-9.6,6.4
	V882.4L844.6,882.4z"/>
<path class="st2" d="M885,901.7c0-6,4.2-10.5,9.9-10.5c6,0,9.9,4.8,9.9,10.5s-3.9,9.7-9.9,9.7c-5.3,0.2-9.8-4-9.9-9.4
	C885,902,885,901.8,885,901.7z"/>
<path class="st2" d="M939.7,818.7c0-18.4-0.3-21.1-10.8-22.3L926,796c-1.1-0.7-0.7-3.9,0.3-4.4c7.6,0.3,13.6,0.5,20.9,0.5h33.3
	c11.3,0,21.8,0,23.9-0.5c1.1,3,2.1,15.8,2.8,23.6c-0.7,1.1-3.5,1.4-4.4,0.3c-2.7-8.3-4.2-14.5-13.5-16.8c-3.7-0.9-9.4-1.1-17.2-1.1
	h-12.7c-5.3,0-5.3,0.3-5.3,7.1v35.4c0,5,0.5,5,5.8,5h10.3c7.4,0,12.9-0.3,15-1.1s3.4-1.8,4.2-6.2l1.4-7.3c0.9-1.1,3.9-1.1,4.6,0.2
	c0,4.2-0.7,11.2-0.7,17.9c0,6.4,0.7,13.1,0.7,17c-0.7,1.2-3.7,1.2-4.6,0.2l-1.6-6.9c-0.7-3.2-2-5.8-5.5-6.7
	c-2.5-0.7-6.7-0.9-13.6-0.9H960c-5.3,0-5.8,0.2-5.8,4.8v25c0,9.4,0.5,15.4,3.4,18.4c2.1,2.1,5.8,4.1,21.4,4.1
	c13.6,0,18.8-0.7,22.7-2.7c3.2-1.8,8-8,12.6-17.2c1.6-0.9,3.5-0.3,4.4,1.2c-1.2,6.2-5.7,19.8-8,24.6c-15.9-0.3-31.7-0.5-47.5-0.5
	h-15.9c-7.6,0-13.6,0.2-24.1,0.5c-1.1-0.5-1.4-3.4-0.3-4.4l5.8-0.5c10.1-0.9,11-3.5,11-22.1L939.7,818.7L939.7,818.7z"/>
<path class="st2" d="M1032.7,901.7c0-6,4.2-10.5,9.9-10.5c6,0,9.9,4.8,9.9,10.5s-3.9,9.7-9.9,9.7c-5.3,0.2-9.8-4-9.9-9.4
	C1032.7,902,1032.7,901.8,1032.7,901.7z"/>
<path class="st2" d="M445.3,977.9c0-8.2-0.2-9.5-5.1-9.8l-2-0.2c-0.4-0.6-0.4-1.5,0.2-2c4.4,0.2,7,0.2,10.2,0.2s5.7-0.1,9.6-0.2
	c0.5,0.5,0.6,1.4,0.2,2l-1.9,0.2c-4.6,0.4-4.8,1.6-4.8,9.8v27.2c0,4.9,0.2,7,1.6,8.4c0.9,0.9,2.3,1.8,8.5,1.8c6.6,0,8.3-0.3,9.5-1
	c1.6-0.9,3.6-3.8,5.2-7.7c0.5-0.4,2-0.1,2,0.5c-0.8,3.7-1.9,7.4-3.3,10.9c-4-0.2-11.4-0.2-19.5-0.2h-7.2c-3.3,0-5.8,0.1-10.2,0.2
	c-0.5-0.5-0.6-1.4-0.2-2l2.3-0.2c4.5-0.5,4.7-1.6,4.7-9.8L445.3,977.9L445.3,977.9z"/>
<path class="st2" d="M488.6,997.8c-2,0-2.1,0.2-2.1,2.1c0,7.9,4.6,14.6,13,14.6c2.6,0,4.8-0.8,7.2-3.8c0.5-0.2,1.1,0,1.3,0.5
	c0.1,0.1,0.1,0.3,0.1,0.4c-2.6,5.3-8.2,7.3-12.3,7.3c-4.4,0.1-8.6-1.8-11.3-5.2c-2.2-2.9-3.3-6.5-3.3-10.2c0-9.6,6.3-17.7,15.7-17.7
	c6.7,0,11.1,4.6,11.1,9.3c0,0.7-0.1,1.4-0.3,2c-0.2,0.5-1.3,0.5-4.6,0.5L488.6,997.8L488.6,997.8z M493.5,995.4
	c5.8,0,7.5-0.3,8.1-0.8c0.4-0.4,0.6-0.9,0.5-1.5c0-2.2-1.5-4.9-6-4.9s-8.6,4.2-8.7,6.8c0,0.2,0,0.4,0.5,0.4L493.5,995.4L493.5,995.4
	z"/>
<path class="st2" d="M528,1001.6c1.2-0.4,1.3-1.1,1.3-2.3l0.1-3.6c0.1-2.9-0.9-6.8-5.7-6.8c-2.2,0-4.8,1.1-5,3.5
	c-0.1,1.2-0.2,2.2-0.8,2.7c-1.3,0.9-2.9,1.4-4.5,1.5c-0.5,0.1-1-0.4-1.1-0.9c0-0.1,0-0.1,0-0.2c0-4.1,8.8-9.6,14.5-9.6
	s8.4,3.3,8.1,9.1l-0.5,13.6c-0.2,3.6,0.5,6.8,3.6,6.8c0.7,0,1.4-0.2,2-0.5c0.3-0.2,0.6-0.4,1-0.5c0.4,0.2,0.6,0.6,0.5,1
	c0,0.4-2.7,3.4-6.6,3.4c-2,0-3.9-0.9-5.1-2.4c-0.2-0.5-0.7-0.9-1.2-1.1c-0.5,0-1.5,0.7-3,1.6c-1.7,0.9-3.4,2-5.6,2
	c-2,0.1-3.9-0.5-5.5-1.8c-1.5-1.4-2.4-3.4-2.4-5.5c0-3,1.5-4.8,6.5-6.6L528,1001.6z M523.1,1015.4c1.8-0.2,3.4-0.9,4.8-2
	c0.9-0.9,0.9-2,1-3.7l0.2-4.6c0-0.9-0.3-1-0.8-1c-1.1,0.1-2.2,0.4-3.2,0.8c-4.6,1.6-6.9,2.7-6.9,5.8c0,2.6,2.1,4.7,4.7,4.7
	C523,1015.4,523,1015.4,523.1,1015.4L523.1,1015.4z"/>
<path class="st2" d="M574.1,1006.4c0,6.2,0.1,9.1,2.3,9.1c1.2-0.1,2.3-0.4,3.4-0.8c0.5,0.2,0.6,2.1-0.1,2.5c-3.5,0.5-7,1.4-10.3,2.5
	c-0.4,0.1-0.8-0.2-0.9-0.6c0,0,0,0,0,0v-1.3c0.1-0.8,0-1.6-0.2-2.4H568c-3.4,2.3-6.1,3.6-9.8,3.6c-8.7,0-14.5-6.8-14.5-15
	c0-10.9,8.3-18,18.9-18c1.8-0.1,3.5,0.2,5.2,0.7c0.4,0,0.5-0.5,0.5-1.1v-11.8c0-4.6-0.1-5.1-2.4-6.5l-0.8-0.5
	c-0.4-0.4-0.4-1.1,0-1.6c2.9-0.9,5.7-2,8.4-3.3c0.3,0,0.6,0.2,0.8,0.5c-0.1,2.3-0.2,6.2-0.2,9.7L574.1,1006.4L574.1,1006.4z
	 M568.3,994.7c0.1-1.1-0.2-2.1-0.9-3c-1.5-2.1-4-3.3-6.6-3.3c-7.1,0-10.8,6.2-10.8,13c0,7.1,4,13.8,11.6,13.8c2.2,0,4.3-0.8,6-2.2
	c0.5-0.5,0.5-1.6,0.5-2.9L568.3,994.7L568.3,994.7z"/>
<path class="st2" d="M590.9,997.8c-2,0-2.1,0.2-2.1,2.1c0,7.9,4.6,14.6,13,14.6c2.6,0,4.8-0.8,7.2-3.8c0.5-0.2,1.1,0,1.3,0.5
	c0.1,0.1,0.1,0.3,0.1,0.4c-2.6,5.3-8.2,7.3-12.3,7.3c-4.4,0.1-8.6-1.8-11.3-5.2c-2.2-2.9-3.3-6.5-3.3-10.2c0-9.6,6.3-17.7,15.7-17.7
	c6.7,0,11.1,4.6,11.1,9.3c0,0.7-0.1,1.4-0.3,2c-0.2,0.5-1.3,0.5-4.6,0.5L590.9,997.8L590.9,997.8z M595.8,995.4
	c5.8,0,7.5-0.3,8.1-0.8c0.4-0.4,0.6-0.9,0.5-1.5c0-2.2-1.5-4.9-6-4.9s-8.6,4.2-8.7,6.8c0,0.2,0,0.4,0.5,0.4L595.8,995.4L595.8,995.4
	z"/>
<path class="st2" d="M619.4,995.4c0-3,0-3.4-2.1-4.8l-0.7-0.5c-0.3-0.4-0.3-1,0.1-1.4c2.7-1.1,5.4-2.4,7.9-3.8
	c0.3,0,0.6,0.2,0.6,0.5v4.5c-0.1,0.3,0,0.5,0.2,0.7c2.7-2.3,5.7-4.7,8.6-4.7c1.8-0.2,3.4,1.2,3.5,2.9c0,0.1,0,0.1,0,0.2
	c0.1,1.9-1.4,3.5-3.3,3.6c0,0,0,0,0,0c-0.6,0-1.2-0.2-1.7-0.5c-1-0.7-2.2-1.2-3.4-1.2c-1.1,0-2.2,0.6-2.8,1.6c-0.8,1.1-1,3.4-1,6
	v10.6c0,5.6,0.2,6.6,3.1,6.8l2.8,0.2c0.5,0.6,0.5,1.4-0.1,1.9c0,0,0,0-0.1,0.1c-3.7-0.2-5.9-0.2-8.7-0.2s-5.2,0.1-7.2,0.2
	c-0.6-0.5-0.7-1.3-0.2-1.9c0,0,0-0.1,0.1-0.1l1.5-0.2c2.9-0.5,3-1.2,3-6.8L619.4,995.4L619.4,995.4z"/>
<path class="st2" d="M659.1,987.3c0.8,2,1.2,4.2,1.2,6.3c-0.5,0.6-1.3,0.7-1.9,0.2c-1.3-3.4-3.7-5.7-6.9-5.7c-3,0-5,2-5,4.8
	c0,3.2,3.3,4.9,6,6.5c4.1,2.3,8,5,8,10.5c0,5.9-5.5,8.9-11.2,8.9c-3.7,0-6.4-0.8-8.4-2.3c-0.8-2.6-1.1-5.2-0.9-7.9
	c0.5-0.5,1.3-0.5,1.8-0.1c1.3,4.3,3.8,8,8.3,8c2.8,0,5.2-1.6,5.2-5c0-3.6-3.1-5.5-6-7.2c-4.5-2.6-7.7-5.3-7.7-9.6
	c0-5.7,4.7-8.9,10.6-8.9C655.5,985.9,658.3,986.7,659.1,987.3z"/>
<path class="st2" d="M669.8,973.7c0-4.6-0.1-5.1-2.4-6.5l-0.8-0.5c-0.4-0.4-0.4-1.1,0-1.6c2.9-0.9,5.7-2,8.4-3.3
	c0.3,0,0.6,0.2,0.8,0.5c-0.1,2.3-0.2,6.2-0.2,9.7v16.4c-0.1,0.5,0,1,0.3,1.5c3-2.5,6.7-3.9,10.5-4.1c7.4,0,10.1,4.6,10.1,10.1v13
	c0,5.6,0.2,6.5,3,6.8l2.1,0.2c0.5,0.6,0.5,1.4-0.1,1.9c0,0,0,0-0.1,0.1c-2.8-0.2-5.1-0.2-7.8-0.2s-5.2,0.1-7.3,0.2
	c-0.6-0.5-0.7-1.3-0.2-1.9c0,0,0-0.1,0.1-0.1l1.6-0.2c2.9-0.5,3-1.2,3-6.8v-11.1c0-5-2.4-8.4-7.4-8.4c-2.2,0-4.4,0.7-6.1,2.1
	c-1.4,1.2-1.6,1.6-1.6,4.3v13.1c0,5.6,0.2,6.4,3,6.8l1.6,0.2c0.5,0.6,0.5,1.4-0.1,1.9c0,0,0,0-0.1,0.1c-2.3-0.2-4.6-0.2-7.3-0.2
	s-5.2,0.1-7.7,0.2c-0.6-0.5-0.7-1.3-0.2-1.9c0,0,0-0.1,0.1-0.1l2-0.2c2.9-0.3,3-1.2,3-6.8v-35.3H669.8z"/>
<path class="st2" d="M710.8,995.4c0-3,0-3.4-2.1-4.8L708,990c-0.3-0.4-0.3-1,0.1-1.4c2.8-1.1,5.4-2.3,8-3.8c0.3,0,0.7,0.1,0.8,0.5
	c-0.2,2.7-0.3,6.5-0.3,9.7v14.1c0,5.6,0.2,6.4,3,6.8l1.6,0.2c0.5,0.6,0.5,1.4-0.1,1.9c0,0,0,0-0.1,0.1c-2.3-0.2-4.6-0.2-7.3-0.2
	s-5.2,0.1-7.3,0.2c-0.6-0.5-0.7-1.3-0.2-1.9c0,0,0-0.1,0.1-0.1l1.6-0.2c2.9-0.4,3-1.2,3-6.8L710.8,995.4L710.8,995.4z M717.3,973.1
	c0,2.2-1.7,4.1-4,4.1c-2.2,0-4.1-1.7-4.1-4l0,0c-0.1-2.2,1.7-4.1,3.9-4.2c0.1,0,0.2,0,0.3,0c2.2,0,3.9,1.7,3.9,3.9
	C717.3,973,717.3,973,717.3,973.1L717.3,973.1z"/>
<path class="st2" d="M729.8,995.4c0-3,0-3.4-2.1-4.8L727,990c-0.3-0.4-0.3-1,0.1-1.4c2.7-1.2,5.3-2.6,7.7-4.2
	c0.4-0.1,0.8,0.2,0.9,0.5c-0.2,1.2-0.3,2.4-0.3,3.6c0,0.5,0.2,1,0.7,1c1-0.5,5.9-3.7,10.9-3.7c7.9,0,13,6.4,13,14.3
	c0,10.9-8,18.7-19.1,18.7c-1.4,0-2.9-0.1-4.3-0.3c-0.7,0.2-1.1,0.5-1.1,2.2v8.2c0,5.6,0.2,6.2,3,6.6l3,0.4c0.5,0.6,0.5,1.4-0.1,1.9
	c0,0,0,0-0.1,0.1c-3.8-0.2-6-0.2-8.8-0.2s-5.2,0.1-7.3,0.2c-0.6-0.5-0.7-1.3-0.2-1.9c0,0,0-0.1,0.1-0.1l1.6-0.2c2.9-0.4,3-1.2,3-6.8
	L729.8,995.4L729.8,995.4z M735.6,1009.9c-0.2,1.9,0.7,3.7,2.3,4.7c1.7,1.1,3.6,1.7,5.6,1.7c6.4,0,10.2-5.9,10.2-14.1
	c0-6.2-3.5-12.6-10.5-12.6c-3.4,0-5.8,1.2-6.6,2.2c-0.7,0.9-0.9,2-0.9,4.6V1009.9L735.6,1009.9z"/>
<path class="st2" d="M814.2,999.7c-0.5-1.7-0.9-2-3.2-2h-11.8c-2,0-2.4,0.2-3,1.9l-2.7,8.2c-0.8,2.1-1.4,4.3-1.7,6.5
	c0,0.9,0.4,1.4,2.3,1.6l2.6,0.2c0.5,0.5,0.6,1.3,0.1,1.8c-0.1,0.1-0.2,0.2-0.3,0.2c-2-0.2-4.5-0.2-8.1-0.2c-2.6,0-5.4,0.2-7.5,0.2
	c-0.5-0.5-0.6-1.4-0.2-2l2.6-0.2c1.9-0.2,3.6-1,4.7-3.8c1.4-3.6,3.6-8.7,6.9-17.4l8-21.1c1.1-2.8,1.6-4.3,1.3-5.5
	c1.6-0.6,3-1.6,4.1-3c0.5-0.1,1,0.2,1.2,0.7c1,3.4,2.3,7,3.4,10.5l10.7,31.4c2.3,6.7,3.3,7.9,6.6,8.3l2.1,0.2c0.5,0.6,0.5,1.4,0,2
	c-3.2-0.2-5.9-0.2-9.5-0.2c-3.8,0-6.7,0.2-9,0.2c-0.6-0.4-0.7-1.2-0.3-1.8c0-0.1,0.1-0.1,0.1-0.2l2.3-0.2c1.6-0.2,2.7-0.6,2.7-1.4
	c-0.1-1.4-0.5-2.8-1-4.1L814.2,999.7z M798.7,992.7c-0.6,1.8-0.5,1.9,1.6,1.9h9.6c2.3,0,2.4-0.3,1.7-2.4l-4.2-12.7
	c-0.5-1.7-1.1-3.3-1.8-4.9h-0.2c-0.7,1.5-1.3,3-1.9,4.6L798.7,992.7z"/>
<path class="st2" d="M858.8,987.2c0.8,0.9,1.2,2,1.2,3.1c0,1.4-0.8,2.9-1.7,2.9c-0.4,0-0.8-0.2-1.1-0.5c-1.7-2.1-4.6-4.1-7.8-4.1
	c-5.5,0-10.8,4.3-10.8,12.6c0,6.1,4.2,13.4,12.6,13.4c3.5,0.2,6.9-1.6,8.7-4.7c0.7-0.1,1.3,0.4,1.4,1c0,0,0,0,0,0.1
	c-2.7,5.8-8.5,8-13,8c-4,0.1-7.8-1.3-10.7-4c-3-3.1-4.7-7.2-4.5-11.6c0-8.4,5.9-17.4,18.9-17.4C854.2,985.9,856.6,986.4,858.8,987.2
	z"/>
<path class="st2" d="M879.9,1001.6c1.2-0.4,1.3-1.1,1.3-2.3l0.1-3.6c0.1-2.9-0.9-6.8-5.7-6.8c-2.2,0-4.8,1.1-5,3.5
	c-0.1,1.2-0.2,2.2-0.8,2.7c-1.3,0.9-2.9,1.4-4.5,1.5c-0.5,0.1-1-0.4-1.1-0.9c0-0.1,0-0.1,0-0.2c0-4.1,8.8-9.6,14.5-9.6
	s8.4,3.3,8.1,9.1l-0.5,13.6c-0.2,3.6,0.5,6.8,3.6,6.8c0.7,0,1.4-0.2,2-0.5c0.3-0.2,0.6-0.4,1-0.5c0.4,0.2,0.6,0.6,0.5,1
	c0,0.4-2.7,3.4-6.6,3.4c-2,0-3.9-0.9-5.1-2.4c-0.2-0.5-0.7-0.9-1.2-1.1c-0.5,0-1.5,0.7-3,1.6c-1.7,0.9-3.4,2-5.6,2
	c-2,0.1-3.9-0.5-5.5-1.8c-1.5-1.4-2.4-3.4-2.4-5.5c0-3,1.5-4.8,6.5-6.6L879.9,1001.6z M875,1015.4c1.8-0.2,3.4-0.9,4.8-2
	c0.9-0.9,0.9-2,1-3.7l0.2-4.6c0-0.9-0.3-1-0.8-1c-1.1,0.1-2.2,0.4-3.2,0.8c-4.6,1.6-6.9,2.7-6.9,5.8c0,2.6,2.1,4.7,4.7,4.7
	C874.8,1015.4,874.9,1015.4,875,1015.4z"/>
<path class="st2" d="M926,1006.4c0,6.2,0.1,9.1,2.3,9.1c1.2-0.1,2.3-0.4,3.4-0.8c0.5,0.2,0.6,2.1-0.1,2.5c-3.5,0.5-7,1.4-10.3,2.5
	c-0.4,0.1-0.8-0.2-0.9-0.6c0,0,0,0,0,0v-1.3c0.1-0.8,0-1.6-0.2-2.4H920c-3.4,2.3-6.1,3.6-9.8,3.6c-8.7,0-14.5-6.8-14.5-15
	c0-10.9,8.3-18,18.9-18c1.8-0.1,3.5,0.2,5.2,0.7c0.4,0,0.5-0.5,0.5-1.1v-11.8c0-4.6-0.1-5.1-2.4-6.5l-0.8-0.5
	c-0.4-0.4-0.4-1.1,0-1.6c2.9-0.9,5.7-2,8.4-3.3c0.3,0,0.6,0.2,0.8,0.5c-0.1,2.3-0.2,6.2-0.2,9.7L926,1006.4L926,1006.4z
	 M920.2,994.7c0.1-1.1-0.2-2.1-0.9-3c-1.5-2.1-4-3.3-6.6-3.3c-7.1,0-10.8,6.2-10.8,13c0,7.1,4,13.8,11.6,13.8c2.2,0,4.3-0.8,6-2.2
	c0.5-0.5,0.5-1.6,0.5-2.9L920.2,994.7L920.2,994.7z"/>
<path class="st2" d="M942.8,997.8c-2,0-2.1,0.2-2.1,2.1c0,7.9,4.6,14.6,13,14.6c2.6,0,4.8-0.8,7.2-3.8c0.5-0.2,1.1,0,1.3,0.5
	c0.1,0.1,0.1,0.3,0.1,0.4c-2.6,5.3-8.2,7.3-12.3,7.3c-4.4,0.1-8.6-1.8-11.3-5.2c-2.2-2.9-3.3-6.5-3.3-10.2c0-9.6,6.3-17.7,15.7-17.7
	c6.7,0,11.1,4.6,11.1,9.3c0,0.7-0.1,1.4-0.3,2c-0.2,0.5-1.3,0.5-4.6,0.5L942.8,997.8L942.8,997.8z M947.7,995.4
	c5.8,0,7.5-0.3,8.1-0.8c0.4-0.4,0.6-0.9,0.5-1.5c0-2.2-1.5-4.9-6-4.9s-8.6,4.2-8.7,6.8c0,0.2,0,0.4,0.5,0.4L947.7,995.4L947.7,995.4
	z"/>
<path class="st2" d="M1012.7,997.7c0-5.3-2.3-8-7.3-8c-2.5-0.1-4.8,0.9-6.5,2.7c-0.9,1.2-1.2,2-1.2,4.7v12c0,5.6,0.2,6.4,3,6.8
	l1.6,0.2c0.5,0.6,0.5,1.4-0.1,1.9c0,0,0,0-0.1,0.1c-2.3-0.2-4.6-0.2-7.3-0.2s-4.9,0.1-7.1,0.2c-0.6-0.5-0.7-1.3-0.2-1.9
	c0,0,0-0.1,0.1-0.1l1.4-0.2c2.9-0.5,3-1.2,3-6.8v-11.4c0-5.2-2.3-8-7.2-8c-2.5-0.1-4.9,0.9-6.6,2.8c-0.8,0.9-1.2,2-1.2,4.5v12
	c0,5.6,0.2,6.3,3,6.8l1.4,0.2c0.5,0.6,0.5,1.4-0.1,1.9c0,0,0,0-0.1,0.1c-2.1-0.2-4.4-0.2-7.1-0.2s-5.2,0.1-7.6,0.2
	c-0.6-0.5-0.7-1.3-0.2-1.9c0,0,0-0.1,0.1-0.1l1.9-0.2c2.9-0.4,3-1.2,3-6.8v-13.6c0-3,0-3.4-2.1-4.8l-0.7-0.5c-0.3-0.4-0.3-1,0.1-1.4
	c2.7-1,5.3-2.3,7.8-3.8c0.4,0,0.7,0.2,0.9,0.5c-0.2,1.8-0.2,3-0.2,3.7c0,0.5,0.3,0.8,0.8,0.9c0,0,0.1,0,0.1,0c3-2.1,6.6-4,10.4-4
	c3.9,0,6.1,1.4,8.3,4.6c0.7,0.1,1.5-0.1,2-0.6c3.1-2.2,7-4,10.6-4c6.2,0,9.3,4.3,9.3,9.7v13.4c0,5.6,0.2,6.4,3,6.8l1.9,0.2
	c0.5,0.6,0.5,1.4-0.1,1.9c0,0,0,0-0.1,0.1c-2.6-0.2-4.8-0.2-7.6-0.2s-4.9,0.1-7.1,0.2c-0.6-0.5-0.7-1.3-0.2-1.9c0,0,0-0.1,0.1-0.1
	l1.4-0.2c2.9-0.5,3-1.2,3-6.8v-11.3H1012.7z"/>
<path class="st2" d="M1027,1033.9c-0.1-1.6,1.1-3,2.7-3.1c0.1,0,0.3,0,0.4,0h1.5c1.1,0,2.1-0.5,2.6-1.4c1.8-2.7,3.3-5.6,4.5-8.7
	c0.4-1.1,0.7-2.2,0.8-3.4c0-1.6-0.3-2.5-1.3-5.4l-6.1-16.7c-1.3-3.7-1.9-5.5-4.6-6.1l-2-0.4c-0.5-0.6-0.4-1.4,0.1-1.9
	c0,0,0.1,0,0.1-0.1c2.5,0.2,4.8,0.2,7.4,0.2c2.1,0,4.3-0.1,6.8-0.2c0.6,0.4,0.7,1.2,0.3,1.8c0,0.1-0.1,0.1-0.2,0.2l-2,0.4
	c-1.1,0.2-1.7,0.5-1.7,1c0,0.9,1.8,6,2.3,7.3l2.5,7.2c0.5,1.2,2,5.4,2.3,5.5c1.1-1.8,2.1-3.8,2.9-5.8l2.7-6.2c1.7-4.1,2.7-7,2.7-7.8
	c0-0.5-0.5-1.1-1.9-1.3l-2.4-0.4c-0.5-0.5-0.5-1.3,0-1.8c0.1-0.1,0.1-0.1,0.2-0.2c2.5,0.2,4.8,0.2,6.9,0.2s3.8-0.1,5.9-0.2
	c0.6,0.4,0.7,1.2,0.3,1.8c0,0.1-0.1,0.1-0.2,0.2l-1.3,0.2c-2.6,0.5-4,2.7-6.6,8.3l-4.4,9c-2.6,5.2-9,18.8-12.8,27.4
	c-1.3,3-3.2,3.7-5,3.7c-1.7,0.1-3.2-1.2-3.4-2.9C1027,1034.2,1027,1034,1027,1033.9z"/>
<path class="st3" d="M422.4,1148.9c-0.4,2.7-1,5.3-2,7.8c-1,2.8-2.5,5.4-4.4,7.7c-2.1,2.4-4.6,4.4-7.5,5.8c-3,1.5-6.8,2.3-11.2,2.3
	c-4.4,0-7.9-0.8-10.6-2.3c-2.4-1.4-4.4-3.4-5.8-5.8c-1.3-2.4-2-5-2.2-7.7c-0.2-2.6-0.1-5.2,0.2-7.8l5.3-37.1h6l-5.3,36.5
	c-0.4,2.4-0.4,4.9-0.2,7.3c0.2,1.8,0.7,3.5,1.5,5.1c0.6,1.3,1.5,2.4,2.6,3.3c1,0.8,2.1,1.4,3.2,1.9c1,0.4,2.1,0.7,3.2,0.9
	c0.9,0.1,1.8,0.2,2.7,0.2c1.5,0,3-0.2,4.4-0.5c2-0.4,3.9-1.3,5.5-2.4c2.1-1.5,3.8-3.4,5.1-5.6c1.5-2.5,2.6-5.9,3.2-10.2l5.2-36.5h6
	L422.4,1148.9z"/>
<path class="st3" d="M443,1131.8c-0.1,1.1-0.1,2.1-0.3,3.1c-0.1,1-0.3,2.1-0.4,3.1h0.2c0.8-1.1,1.7-2.1,2.7-2.9
	c1.1-0.9,2.3-1.7,3.5-2.3c1.3-0.6,2.6-1.1,3.9-1.5c1.3-0.4,2.6-0.5,4-0.5c5,0,8.5,1.3,10.6,4c2,2.7,2.7,6.4,2.1,11.3l-3.5,24.8h-5.5
	l3-21.7c0.3-1.9,0.4-3.9,0.3-5.8c-0.1-1.5-0.4-2.9-1.1-4.2c-0.7-1.1-1.7-2.1-2.9-2.6c-1.6-0.6-3.3-0.9-5-0.9
	c-0.8,0.1-1.6,0.2-2.4,0.3c-1.5,0.3-3,0.9-4.3,1.8c-1.8,1.2-3.3,2.7-4.4,4.5c-1.4,2-2.3,4.8-2.8,8.4l-2.8,20.1h-5.5l4.3-30.5
	c0.2-1.1,0.3-2.4,0.5-4c0.1-1.6,0.3-3.2,0.4-4.6L443,1131.8L443,1131.8z"/>
<path class="st3" d="M517.8,1171h-5.5l0.9-6.5H513c-1.1,1.3-2.3,2.5-3.7,3.4c-1.3,0.9-2.7,1.7-4.2,2.3c-2.7,1.1-5.5,1.7-8.4,1.8
	c-2.8,0-5.6-0.5-8.2-1.5c-4.7-1.9-8.1-5.9-9.4-10.8c-0.7-2.7-0.8-5.5-0.3-8.2c0.4-2.9,1.3-5.7,2.7-8.2c1.4-2.5,3.1-4.7,5.2-6.5
	c4.4-3.8,10-5.9,15.8-5.9c1.3,0,2.7,0.1,4,0.4c1.4,0.3,2.7,0.7,4,1.3c1.3,0.6,2.4,1.4,3.5,2.3c1.1,1,2,2.1,2.7,3.4h0.2l4.3-30.6h5.5
	L517.8,1171z M484.9,1151.4c-0.3,2-0.3,4.1,0.1,6.1c0.4,1.8,1.1,3.5,2.3,4.9c1.1,1.4,2.6,2.6,4.2,3.3c1.9,0.8,4,1.3,6,1.2
	c2.2,0,4.4-0.4,6.4-1.2c2-0.8,3.8-1.9,5.4-3.3c1.6-1.4,2.9-3.1,3.9-4.9c1-1.9,1.7-4,2-6.1c0.3-2,0.2-4.1-0.3-6.1
	c-1-3.7-3.6-6.7-7.1-8.2c-1.9-0.8-4-1.2-6.1-1.2c-2.2,0-4.3,0.4-6.3,1.2c-1.9,0.8-3.6,1.9-5.1,3.3c-1.5,1.4-2.7,3.1-3.6,4.9
	C485.9,1147.2,485.2,1149.3,484.9,1151.4L484.9,1151.4z"/>
<path class="st3" d="M536.2,1152.9c-0.1,1.9,0.1,3.7,0.6,5.5c0.5,1.7,1.3,3.2,2.5,4.5c1.1,1.3,2.5,2.3,4,3c1.7,0.7,3.5,1.1,5.3,1.1
	c2.8,0,5.5-0.7,8-2c2.1-1.2,4-2.8,5.5-4.7l3.8,3.5c-2.4,2.7-5.3,4.9-8.6,6.4c-3,1.3-6.1,1.9-9.4,1.9c-2.7,0-5.4-0.5-7.8-1.5
	c-2.2-1-4.2-2.5-5.8-4.3c-1.6-1.9-2.7-4.1-3.3-6.5c-0.7-2.7-0.8-5.5-0.3-8.2c0.4-2.9,1.3-5.7,2.6-8.2c1.3-2.4,3-4.7,5.1-6.5
	c2-1.8,4.3-3.3,6.9-4.3c2.5-1,5.3-1.6,8-1.6c2.7-0.1,5.3,0.5,7.7,1.6c2.1,1,3.9,2.4,5.3,4.2c1.4,1.8,2.3,3.9,2.8,6.2
	c0.5,2.5,0.6,5.1,0.2,7.6l-0.4,2.5L536.2,1152.9L536.2,1152.9z M563.5,1148.4c0.5-3.7-0.2-6.8-2.1-9.1c-1.9-2.3-4.9-3.5-8.9-3.5
	c-1.8,0-3.6,0.4-5.3,1c-1.7,0.7-3.3,1.6-4.8,2.8c-1.4,1.1-2.6,2.5-3.6,4c-0.9,1.4-1.6,3-1.8,4.7H563.5L563.5,1148.4z"/>
<path class="st3" d="M580.7,1144.1c0.2-1.7,0.4-3.5,0.6-5.3c0.2-1.8,0.5-4.1,0.8-6.9h5.5l-1,7.3h0.2c0.6-1.1,1.3-2.1,2.1-3.1
	c0.9-1,1.9-1.9,3-2.6c1.2-0.8,2.5-1.4,3.9-1.9c2.9-0.9,5.9-0.9,8.8-0.2l-1.9,5.4c-1-0.3-2-0.5-3.1-0.4c-1.9,0-3.8,0.4-5.6,1.2
	c-1.6,0.8-3,1.8-4.2,3.1c-1.1,1.2-2.1,2.6-2.8,4.1c-0.7,1.3-1.1,2.7-1.3,4.2l-3.1,22.1H577L580.7,1144.1z"/>
<path class="st3" d="M679.5,1161.6c-2.7,3.3-6.1,5.9-9.9,7.7c-2.1,1-4.3,1.8-6.5,2.3c-2.3,0.6-4.7,0.8-7.1,0.8
	c-4.1,0.1-8.2-0.7-11.9-2.3c-7-2.9-12.2-9-14-16.3c-1-4.1-1.2-8.3-0.6-12.5c0.6-4.4,1.9-8.6,4.1-12.5c4.1-7.5,10.6-13.2,18.6-16.3
	c4-1.6,8.3-2.4,12.6-2.3c1.8,0,3.7,0.2,5.5,0.5c1.8,0.4,3.6,0.9,5.2,1.7c1.7,0.8,3.3,1.7,4.7,2.9c1.5,1.2,2.8,2.6,3.8,4.3l-5.8,3.9
	c-0.5-1.1-1.2-2-2.1-2.8c-1-1-2.1-1.8-3.3-2.5c-1.3-0.7-2.7-1.3-4.1-1.8c-1.5-0.4-3-0.7-4.6-0.6c-3.6,0-7.2,0.7-10.5,2.1
	c-3.1,1.3-6,3.2-8.4,5.6c-2.4,2.4-4.4,5.1-5.9,8.2c-1.5,3.1-2.6,6.4-3.1,9.7c-0.5,3.2-0.4,6.5,0.3,9.7c0.6,2.9,1.9,5.7,3.7,8.2
	c1.8,2.4,4.2,4.3,6.9,5.6c3.1,1.5,6.5,2.2,9.9,2.1c1.6,0,3.2-0.1,4.7-0.4c1.6-0.3,3.2-0.8,4.7-1.4c1.6-0.7,3.2-1.6,4.6-2.7
	c1.6-1.2,3-2.7,4.3-4.3L679.5,1161.6z"/>
<path class="st3" d="M728.6,1151.4c-0.4,2.9-1.3,5.6-2.7,8.2c-1.3,2.5-3.1,4.7-5.2,6.5c-2.1,1.9-4.6,3.3-7.2,4.3
	c-2.8,1-5.7,1.6-8.7,1.5c-2.8,0-5.5-0.5-8.1-1.5c-4.7-1.9-8.1-5.9-9.4-10.8c-0.7-2.7-0.8-5.5-0.3-8.2c0.4-2.9,1.3-5.7,2.7-8.2
	c1.4-2.5,3.1-4.7,5.2-6.5c4.3-3.8,9.9-5.9,15.7-5.9c2.8,0,5.6,0.5,8.2,1.6c4.7,1.9,8.1,5.9,9.4,10.8
	C728.9,1145.9,729.1,1148.7,728.6,1151.4z M722.6,1151.4c0.3-2,0.3-4.1-0.2-6.1c-0.4-1.8-1.2-3.5-2.3-4.9c-1.1-1.4-2.5-2.5-4.2-3.3
	c-1.9-0.8-3.9-1.3-6-1.2c-2.2,0-4.3,0.4-6.3,1.2c-1.9,0.8-3.6,1.9-5.1,3.3c-1.5,1.4-2.7,3.1-3.6,4.9c-1,1.9-1.6,4-1.9,6.1
	c-0.3,2-0.3,4.1,0.1,6.1c0.4,1.8,1.1,3.5,2.3,4.9c1.1,1.4,2.5,2.6,4.2,3.3c1.9,0.8,3.9,1.3,6,1.2c2.2,0,4.3-0.4,6.3-1.2
	c1.9-0.8,3.6-1.9,5.1-3.3c1.5-1.4,2.7-3.1,3.6-4.9C721.7,1155.6,722.3,1153.5,722.6,1151.4z"/>
<path class="st3" d="M746.7,1131.8c-0.1,1.1-0.1,2.1-0.3,3.1c-0.1,1-0.3,2.1-0.4,3.1h0.2c0.8-1.1,1.7-2.1,2.7-2.9
	c1.1-0.9,2.3-1.7,3.5-2.3c1.3-0.6,2.6-1.1,3.9-1.5c1.3-0.4,2.6-0.5,4-0.5c5,0,8.5,1.3,10.6,4c2,2.7,2.7,6.4,2.1,11.3l-3.5,24.8h-5.5
	l3-21.7c0.3-1.9,0.4-3.9,0.3-5.8c-0.1-1.5-0.4-2.9-1.1-4.2c-0.7-1.1-1.7-2.1-2.9-2.6c-1.6-0.6-3.3-0.9-5-0.9
	c-0.8,0.1-1.6,0.2-2.4,0.3c-1.5,0.3-3,0.9-4.3,1.8c-1.8,1.2-3.3,2.7-4.4,4.5c-1.4,2-2.3,4.8-2.8,8.4l-2.8,20.1h-5.5l4.3-30.5
	c0.2-1.1,0.3-2.4,0.5-4c0.1-1.6,0.3-3.2,0.4-4.6L746.7,1131.8L746.7,1131.8z"/>
<path class="st3" d="M807.3,1141.1c-0.5-1.5-1.5-2.9-2.8-3.9c-1.4-1-3.2-1.5-4.9-1.4c-1,0-2,0.1-2.9,0.3c-1,0.2-1.9,0.6-2.8,1
	c-0.8,0.5-1.5,1.1-2.1,1.8c-0.6,0.8-1,1.7-1.1,2.7c-0.3,1.8,0.2,3.2,1.3,4c1.7,1.1,3.6,1.8,5.5,2.2l5.5,1.3c2.5,0.5,4.7,1.8,6.3,3.7
	c1.6,1.9,2.2,4.2,1.8,7c-0.3,2-1,3.8-2.1,5.5c-1.1,1.5-2.4,2.8-4,3.8c-1.6,1-3.4,1.7-5.2,2.1c-1.9,0.4-3.8,0.6-5.7,0.6
	c-2.8,0.1-5.6-0.5-8.2-1.7c-2.5-1.3-4.6-3.3-5.8-5.9l5.3-3.3c0.8,1.7,2.1,3.2,3.6,4.3c1.7,1.1,3.8,1.7,5.8,1.6
	c1.1,0,2.3-0.1,3.4-0.4c1.1-0.2,2.2-0.6,3.1-1.2c0.9-0.5,1.7-1.2,2.4-2.1c0.7-0.9,1.1-1.9,1.2-2.9c0.1-0.8,0-1.7-0.3-2.5
	c-0.3-0.7-0.8-1.3-1.3-1.7c-0.7-0.5-1.4-0.9-2.2-1.2c-0.9-0.3-1.8-0.6-2.8-0.9l-5.2-1.3c-0.9-0.2-1.7-0.5-2.6-0.8
	c-1.1-0.4-2.1-1-3.1-1.8c-1-0.8-1.8-1.9-2.4-3.1c-0.7-1.4-0.8-3.1-0.5-4.6c0.2-1.9,0.9-3.7,1.9-5.3c1-1.5,2.2-2.7,3.7-3.7
	c1.5-1,3.2-1.7,4.9-2.1c1.8-0.5,3.6-0.7,5.5-0.7c2.6,0,5.1,0.5,7.4,1.6c2.2,1.1,3.9,3.1,4.7,5.4L807.3,1141.1z"/>
<path class="st3" d="M843.1,1136.8h-11.3l-3.1,23.1c-0.2,1.2-0.3,2.4-0.1,3.6c0.1,0.8,0.4,1.5,0.8,2.1c0.4,0.5,1,0.9,1.7,1
	c0.7,0.2,1.5,0.3,2.3,0.3c1,0,2-0.1,2.9-0.4c1-0.3,1.9-0.6,2.9-1.1l-0.4,5.1c-2.5,1-5.1,1.5-7.7,1.4c-1.1,0-2.2-0.1-3.2-0.4
	c-1.1-0.3-2.1-0.8-2.9-1.6c-0.9-0.9-1.6-2-1.9-3.2c-0.5-1.7-0.5-3.5-0.2-5.3l3.4-24.7H818l0.8-5h8.3l1.5-11h5.5l-1.5,11h11.3
	L843.1,1136.8z"/>
<path class="st3" d="M850.2,1144.1c0.2-1.7,0.4-3.5,0.6-5.3c0.2-1.8,0.5-4.1,0.8-6.9h5.5l-1,7.3h0.2c0.6-1.1,1.3-2.1,2.1-3.1
	c0.9-1,1.9-1.9,3-2.6c1.2-0.8,2.5-1.4,3.9-1.9c2.9-0.9,5.9-0.9,8.8-0.2l-1.9,5.4c-1-0.3-2-0.5-3.1-0.4c-1.9,0-3.8,0.4-5.6,1.2
	c-1.6,0.8-3,1.8-4.2,3.1c-1.1,1.2-2.1,2.6-2.8,4.1c-0.7,1.3-1.1,2.7-1.3,4.2L852,1171h-5.5L850.2,1144.1z"/>
<path class="st3" d="M901.9,1171c0.1-1.1,0.1-2.1,0.3-3.1c0.1-1,0.3-2.1,0.4-3.1h-0.2c-0.8,1.1-1.8,2.1-2.8,2.9
	c-1.1,0.9-2.3,1.7-3.5,2.3c-1.3,0.6-2.6,1.1-3.9,1.5c-1.3,0.4-2.6,0.5-4,0.5c-5,0-8.5-1.3-10.5-4c-2-2.6-2.7-6.4-2-11.3l3.5-24.8
	h5.5l-3.1,21.7c-0.3,1.9-0.4,3.9-0.3,5.8c0.1,1.5,0.4,2.9,1.1,4.2c0.7,1.1,1.7,2.1,2.9,2.6c1.6,0.6,3.3,0.9,5,0.9
	c0.2,0,0.6,0,1.3-0.1c0.8-0.1,1.6-0.3,2.4-0.6c1-0.4,2-0.8,3-1.4c1.1-0.7,2.2-1.6,3.1-2.6c1.1-1.3,1.9-2.7,2.6-4.2
	c0.8-1.9,1.4-4,1.6-6.1l2.8-20.1h5.5l-4.4,30.5c-0.1,1.1-0.2,2.4-0.4,4c-0.1,1.6-0.3,3.2-0.4,4.6L901.9,1171L901.9,1171z"/>
<path class="st3" d="M952.8,1141c-0.8-1.5-2-2.8-3.4-3.7c-1.7-1-3.6-1.6-5.6-1.5c-2.2-0.1-4.3,0.3-6.3,1.1c-1.9,0.8-3.6,1.9-5.1,3.3
	c-1.5,1.4-2.7,3.1-3.6,5c-0.9,2-1.6,4.1-1.9,6.2c-0.3,2.1-0.3,4.2,0.1,6.2c0.4,1.8,1.1,3.5,2.2,5c1.1,1.4,2.5,2.5,4.2,3.3
	c1.9,0.8,4,1.2,6,1.1c2.1,0,4.2-0.5,6-1.5c1.7-0.9,3.2-2.2,4.4-3.7l4.1,3.4c-2.1,2.2-4.6,3.9-7.4,5.1c-2.5,1.1-5.2,1.6-7.9,1.7
	c-2.9,0.1-5.7-0.4-8.4-1.5c-2.3-0.9-4.3-2.4-5.9-4.3c-1.6-1.9-2.7-4.2-3.2-6.6c-0.6-2.7-0.7-5.5-0.3-8.2c0.4-2.9,1.2-5.7,2.6-8.2
	c1.3-2.5,3-4.7,5.1-6.6c2.1-1.9,4.5-3.3,7.1-4.3c2.8-1.1,5.8-1.6,8.8-1.5c2.6,0,5.1,0.6,7.5,1.7c2.4,1.1,4.4,2.9,5.9,5.1L952.8,1141
	z"/>
<path class="st3" d="M985.5,1136.8h-11.3l-3.1,23.1c-0.2,1.2-0.3,2.4-0.1,3.6c0.1,0.8,0.4,1.5,0.8,2.1c0.4,0.5,1,0.9,1.7,1
	c0.7,0.2,1.5,0.3,2.3,0.3c1,0,2-0.1,2.9-0.4c1-0.3,1.9-0.6,2.9-1.1l-0.4,5.1c-2.5,1-5.1,1.5-7.7,1.4c-1.1,0-2.2-0.1-3.2-0.4
	c-1.1-0.3-2.1-0.8-2.9-1.6c-0.9-0.9-1.6-2-1.9-3.2c-0.5-1.7-0.5-3.5-0.2-5.3l3.4-24.7h-8.3l0.8-5h8.3l1.5-11h5.5l-1.5,11h11.3
	L985.5,1136.8z"/>
<path class="st3" d="M995,1171h-5.5l5.5-39.2h5.5L995,1171z M1003.9,1116.8c-0.2,1.1-0.8,2.2-1.7,2.9c-0.8,0.7-1.9,1.1-2.9,1.1
	c-1,0-1.9-0.4-2.6-1.1c-0.7-0.8-1-1.8-0.8-2.9c0.2-1.1,0.8-2.2,1.7-2.9c0.8-0.7,1.9-1.1,2.9-1.1c1,0,1.9,0.4,2.6,1.1
	C1003.8,1114.7,1004.1,1115.7,1003.9,1116.8L1003.9,1116.8z"/>
<path class="st3" d="M1050.6,1151.4c-0.4,2.9-1.3,5.6-2.7,8.2c-1.3,2.5-3.1,4.7-5.2,6.5c-2.1,1.9-4.6,3.3-7.2,4.3
	c-2.8,1-5.7,1.6-8.7,1.5c-2.8,0-5.5-0.5-8.1-1.5c-4.7-1.9-8.1-5.9-9.4-10.8c-0.7-2.7-0.8-5.5-0.3-8.2c0.4-2.9,1.3-5.7,2.7-8.2
	c1.4-2.5,3.1-4.7,5.2-6.5c4.3-3.8,9.9-5.9,15.7-5.9c2.8,0,5.6,0.5,8.2,1.6c4.7,1.9,8.1,5.9,9.4,10.8
	C1050.9,1145.9,1051,1148.7,1050.6,1151.4z M1044.6,1151.4c0.3-2,0.3-4.1-0.2-6.1c-0.4-1.8-1.2-3.5-2.3-4.9
	c-1.1-1.4-2.5-2.5-4.2-3.3c-1.9-0.8-3.9-1.3-6-1.2c-2.2,0-4.3,0.4-6.3,1.2c-1.9,0.8-3.6,1.9-5.1,3.3c-1.5,1.4-2.7,3.1-3.6,4.9
	c-1,1.9-1.6,4-1.9,6.1c-0.3,2-0.3,4.1,0.1,6.1c0.4,1.8,1.1,3.5,2.3,4.9c1.1,1.4,2.5,2.5,4.2,3.3c1.9,0.8,3.9,1.3,6,1.2
	c2.2,0,4.3-0.4,6.3-1.2c1.9-0.8,3.6-1.9,5.1-3.3c1.5-1.4,2.7-3.1,3.6-4.9C1043.6,1155.6,1044.3,1153.5,1044.6,1151.4z"/>
<path class="st3" d="M1068.7,1131.8c-0.1,1.1-0.1,2.1-0.3,3.1s-0.3,2.1-0.4,3.1h0.2c0.8-1.1,1.7-2.1,2.7-2.9
	c1.1-0.9,2.3-1.7,3.5-2.3c1.3-0.6,2.6-1.1,3.9-1.5c1.3-0.4,2.6-0.5,4-0.5c5,0,8.5,1.3,10.6,4c2,2.7,2.7,6.4,2.1,11.3l-3.5,24.8h-5.5
	l3-21.7c0.3-1.9,0.4-3.9,0.3-5.8c-0.1-1.5-0.4-2.9-1.1-4.2c-0.7-1.1-1.7-2.1-2.9-2.6c-1.6-0.6-3.3-0.9-5-0.9
	c-0.8,0.1-1.6,0.2-2.4,0.3c-1.5,0.3-3,0.9-4.3,1.8c-1.8,1.2-3.3,2.7-4.4,4.5c-1.4,2-2.3,4.8-2.8,8.4l-2.8,20.1h-5.5l4.3-30.5
	c0.2-1.1,0.3-2.4,0.5-4c0.1-1.6,0.3-3.2,0.4-4.6L1068.7,1131.8L1068.7,1131.8z"/>
</svg>
