<?xml version="1.0" encoding="utf-8"?>
<!-- Generator: Adobe Illustrator 19.1.0, SVG Export Plug-In . SVG Version: 6.00 Build 0)  -->
<svg version="1.1" id="Layer_1" xmlns="http://www.w3.org/2000/svg" xmlns:xlink="http://www.w3.org/1999/xlink" x="0px" y="0px"
	 viewBox="0 0 1000 1000" style="enable-background:new 0 0 1000 1000;" xml:space="preserve">
<g>
	<path d="M337.5,896c-6.5-1.4-13-2.5-19.4-4.1c-35.9-8.8-69.5-22.9-99.8-44.3c-41.4-29.2-68.2-68.4-80.3-117.6
		c-2-8.3-3.2-16.7-1.8-25.2c1.8-11,9.6-16.8,20.6-15.6c10.2,1.1,19.2,5.2,27.8,10.5c16.4,10.2,29.7,23.2,39.4,40.3
		c11.4,20.1,25,38.8,38.8,57.2c24.1,32,48.6,63.7,72.9,95.6c0.7,0.9,1.4,1.8,2.1,2.7C337.7,895.6,337.6,895.8,337.5,896z"/>
	<path d="M105.7,398.4c12.8,7.5,25.3,14.9,37.9,22.1c33.3,19.1,66.6,38.1,101.1,55c6.3,3.1,12.9,5.8,19.3,8.7
		c20.2,8.8,35.4,23,46.4,41.9c2.9,4.9,4.8,10.2,5,16.1c0.2,6.7-2.8,11.5-8.9,14.3c-6.9,3.2-14.3,3.6-21.8,3
		c-47.8-3.9-88-23.4-120.6-58.4c-27.1-29-45.8-62.9-58.2-100.5c-0.2-0.5-0.3-1-0.4-1.4C105.6,399,105.6,398.8,105.7,398.4z"/>
	<path d="M424,806.2c-9.9-0.3-19.8-0.2-29.7-0.9c-22.9-1.6-45.4-5.9-67.1-13.4c-29.8-10.2-56.4-25.6-77.9-48.8
		c-15.1-16.3-27.4-34.6-35.1-55.6c-1.4-3.9-2.2-8.2-2.6-12.4c-0.9-9.8,4.9-16.4,14.6-17.7c8.8-1.2,17.3,0.7,25.5,3.5
		c16.8,5.7,31.3,14.7,43.2,28.2c15.5,17.5,33,33,50.5,48.4c25.5,22.3,51.4,44.3,77.1,66.4c0.6,0.5,1.2,1.1,1.8,1.6
		C424.2,805.6,424.1,805.9,424,806.2z"/>
	<path d="M228.9,358.3c2.9,2.3,5.6,4.3,8.4,6.4c33.6,25.6,67.3,51,102.5,74.4c7.3,4.9,15.1,9.1,22.6,13.8
		c18.2,11.5,31.4,27.1,37.6,48c0.9,3.1,1,6.6,0.6,9.9c-0.7,6.2-4.8,9.6-10.7,11.1c-7.4,1.9-14.8,0.9-22-0.8
		c-41.8-9.6-75-32.2-99.6-67.3c-20-28.5-32.6-60.1-39.1-94.2C228.9,359.3,228.9,359,228.9,358.3z"/>
	<path d="M481.7,753.8c-8,0-15.5,0.4-23-0.1c-23.6-1.3-46.7-5.7-69-13.9c-30-11-55.8-28.1-75.4-53.7c-8.9-11.6-16.7-23.9-21.7-37.7
		c-1.3-3.7-2.2-7.7-2.6-11.6c-1-9,4.2-15.3,13.2-16.4c9.1-1.2,17.7,1.1,26.1,4.3c14.1,5.4,25.9,13.8,36.4,24.8
		c13.9,14.6,28.6,28.5,43.6,41.8c23.1,20.6,46.9,40.5,70.4,60.7C480.2,752.5,480.8,753,481.7,753.8z"/>
	<path d="M308.7,323.9c3.4,2.6,6.4,4.9,9.4,7.2c30.8,23.6,61.6,47.2,94,68.6c5.3,3.5,10.8,6.5,16.2,9.9
		c16.3,10.3,27.9,24.3,33.7,42.7c0.6,2,0.8,4.1,0.9,6.1c0.2,8.1-4,13-12,14.1c-7.6,1.1-14.9-0.4-22.2-2.3
		c-41.1-11-71.5-35.9-92.9-72.2C322.7,375.9,314,352,309,326.8C308.9,326,308.8,325.2,308.7,323.9z"/>
	<path d="M544.9,717.3c-8.9-0.3-17.8-0.3-26.6-1c-20.3-1.6-40-5.9-59-13.3c-37.2-14.4-64.7-39.2-81.7-75.4
		c-2.1-4.5-3.6-9.5-4.4-14.5c-1.7-10,3.7-16.2,13.9-16.6c10.2-0.4,19.5,2.9,28.5,7.2c9.6,4.6,17.8,10.9,25,18.8
		c14.1,15.7,29.9,29.7,45.8,43.5c18.8,16.4,37.9,32.6,56.9,48.8c0.6,0.5,1.2,1.1,1.9,1.6C545,716.7,544.9,717,544.9,717.3z"/>
	<path d="M406,298.2c0.6,0.8,1.1,1.7,1.8,2.4c24.6,23.7,49.2,47.4,74,70.9c6.3,5.9,13.3,11.1,20,16.6c13,10.5,21.4,23.8,25.2,40
		c0.4,1.7,0.6,3.5,0.6,5.2c0.4,9.3-5,14.5-14.4,13.9c-6.6-0.4-12.7-2.5-18.7-5c-36.5-15.3-60.7-42.3-75.2-78.6
		c-7.8-19.3-12.2-39.4-13.9-60.1c-0.1-1.6,0-3.1,0-4.7C405.5,298.6,405.7,298.4,406,298.2z"/>
	<path d="M625.8,642.9c-5.4,1.6-10.1,3.2-14.9,4.4c-18.6,4.8-37.4,7.2-56.6,6.6c-36.5-1.3-68.2-14-93.7-40.6c-4-4.2-7.6-8.9-10.3-14
		c-4.7-8.7-1.6-15.6,7.8-18.7c8.9-2.9,17.9-2.4,26.9-1c9.2,1.5,17.5,5.3,25.8,9.6c18.2,9.6,36.7,18.8,55.4,27.5
		c18.5,8.6,37.5,16.5,56.2,24.6C623.3,641.8,624.2,642.2,625.8,642.9z"/>
	<path d="M471,264.9c1.5,1.8,2.5,3.1,3.6,4.3c20,24.2,40.1,48.3,61.6,71.2c4.4,4.7,9.1,9,13.7,13.5c10.7,10.3,16.9,22.9,19.2,37.5
		c0.2,1.3,0.2,2.7,0.1,4c-0.1,9.6-5.9,14.5-15.2,12.1c-5.6-1.4-11.2-3.7-16.4-6.5c-31.3-16.9-50.2-43.6-59.9-77.3
		c-5.2-18.1-7.4-36.5-7-55.3C470.8,267.5,470.9,266.6,471,264.9z"/>
	<path d="M672.2,548.5c-2.7,2.2-4.9,4.1-7.2,5.9c-20.4,15.7-42.9,27.4-68.3,32.8c-26.1,5.5-51.2,2.2-75.1-9.3
		c-4.3-2.1-8.3-5-11.8-8.2c-5.1-4.8-5-10.6,0.1-15.3c3.2-2.9,7-5.5,10.9-7.2c12.3-5.5,25.1-6.7,38.6-4.7c12.7,1.8,25.5,2.8,38.3,3.5
		c24.2,1.1,48.4,1.7,72.7,2.5C670.7,548.3,671.1,548.4,672.2,548.5z"/>
	<path d="M517,210.4c0.7,1.2,1.2,2,1.7,2.8c15.7,25,31.3,50.1,47.1,75.1c2.6,4.1,5.8,7.9,8.8,11.8c8.6,11.7,13.1,24.6,11.6,39.2
		c-0.9,8.9-6.8,12.4-15.2,9.4c-2.5-0.9-5-2-7.1-3.5c-4.4-3-8.7-6.2-12.7-9.7c-19.1-16.6-30.1-37.8-34.9-62.4
		c-3.9-19.9-3.5-39.9,0-59.8c0.1-0.5,0.2-1,0.3-1.5C516.7,211.4,516.8,211.2,517,210.4z"/>
	<path d="M695.1,456.9c-3.7,5.8-7.1,11.8-11,17.4c-12.7,18.3-28.2,33.7-48,44.3c-18.9,10.2-39.1,13.8-60.3,11.6
		c-3.6-0.4-7.2-1.6-10.4-3.1c-4.8-2.2-6.6-6.7-4.5-11.5c1.7-3.7,4-7.4,6.8-10.3c8.2-8.5,18.2-13.7,29.8-16.7
		c15.7-4.1,31.1-9,46.5-14.2c16.2-5.4,32.2-11.5,48.3-17.4c0.7-0.3,1.4-0.5,2.1-0.8C694.6,456.6,694.8,456.8,695.1,456.9z"/>
	<path d="M689.5,156.6c-0.4,4.8-0.6,8.2-1,11.6c-0.7,6.9-3.8,12.7-8.6,17.6c-3,3.1-6.1,6.2-9.5,8.9c-5.4,4.3-10,9.3-13.9,14.9
		c-1.2,1.8-2.5,3.6-3.8,5.2c-4.7,6-7.9,12.6-9.5,20.1c-1,4.6-2.8,9.1-4.8,13.3c-3.4,6.8-7.3,8.4-14.3,5.6c-3.6-1.4-6.9-3.7-9.9-6
		c-3.4-2.6-4.4-6.6-3.1-10.6c1.7-5.1,3.3-10.4,6-15c8.5-14.9,14.7-30.7,18.7-47.4c5.4-22.4,22.1-32,42.5-37.2c5.1-1.3,8,0.7,9.3,5.9
		C688.6,148.2,689,153.1,689.5,156.6z"/>
	<path d="M707.6,233c-0.5,4.4-0.9,8.8-1.6,13.1c-1.2,7.2-4.4,13.4-9.7,18.5c-9.4,9-17.5,19-25,29.5c-2.8,3.9-5,8.2-7.7,12.2
		c-2.9,4.4-5.7,8.8-9.1,12.8c-4.5,5.2-8.7,6.1-15,3.3c-3.6-1.6-6.8-4.1-9.9-6.6c-2.9-2.3-3.5-5.8-2-9.1c1.5-3.3,3.3-6.6,5.6-9.4
		c2.9-3.6,6.5-6.7,9.6-10.2c1.9-2.1,3.8-4.3,4.9-6.8c3.2-7,6.3-14.1,8.8-21.5c1.7-5.2,2.2-10.9,3.3-16.4c0.5-2.4,1.1-4.7,1.7-7
		c1.9-7.3,5.8-13.1,12-17.6c6.1-4.4,12.4-8.5,19.7-10.6c6-1.8,8.6-0.5,10.9,5.3C706.5,219.1,707.2,226,707.6,233z"/>
	<path d="M575,162.6c2,8,3.8,15.6,5.7,23.1c5.6,21.8,10.8,43.6,18.6,64.7c3,8.2,5.5,16.5,4.8,25.3c-0.4,4.6-1.5,9.2-2.5,13.7
		c-0.3,1.5-1.2,2.9-2,4.3c-3.2,5.2-7.9,6.5-13,3.1c-3-2-5.8-4.6-8-7.4c-15.9-20-22.8-42.8-21.1-68.2c1.4-19.8,7-38.4,16-56
		C573.9,164.4,574.3,163.7,575,162.6z"/>
	<path d="M700.9,387.7c-1.2,3.1-2.4,6.2-3.7,9.2c-9.4,21-22.2,39.4-41,53.2c-16.1,11.8-34.2,17.6-54.1,17.8c-2.5,0-5.2-0.5-7.6-1.3
		c-4.9-1.6-7.1-5.5-5.5-10.4c1-3.2,2.5-6.4,4.4-9.1c6.2-8.6,14.5-14.5,24.3-18.8c15.3-6.6,30.2-13.8,45.1-21.2
		c11.8-5.9,23.4-12.3,35.1-18.5c0.8-0.4,1.6-0.8,2.4-1.2C700.6,387.4,700.8,387.6,700.9,387.7z"/>
	<path d="M695.5,311.7c-0.6,4.1-1,8.3-1.8,12.4c-3.6,19-10.3,36.6-22.5,51.9c-11.2,14-25.5,23.2-42.7,28.1c-2.1,0.6-4.4,0.8-6.7,0.8
		c-5.1,0-8.3-3.1-8-8.1c0.2-3.2,0.9-6.5,2-9.4c3.5-8.7,9.3-15.5,16.7-21.3c12.4-9.8,24.4-20.1,36.3-30.5
		c8.3-7.2,16.2-14.9,24.2-22.4c0.6-0.5,1.2-1.1,1.8-1.6C695.1,311.5,695.3,311.6,695.5,311.7z"/>
	<path d="M724.4,139.6c1.1-1.8,1.7-4.1,3.2-5.2c3.6-2.6,7.5-5,11.6-6.8c8.9-4,17.3-8.8,25-14.8c4.5-3.5,8.8-7.2,14.7-8.1
		c8.6-1.4,16.9-0.4,24.9,3.2c4.5,2.1,5.3,4.2,3.1,8.8c-2.8,5.9-6.8,10.8-12,14.8c-3.8,2.9-8.4,3.8-12.9,3.9
		c-9.5,0.2-18.6,2.1-27.5,5.5c-2,0.8-3.8,1.9-5.6,3.1c-3.4,2.2-6.6,4.9-10.1,6.8c-5.4,2.9-8.6,1.9-11.5-3.5
		C726.1,145,725.5,142.5,724.4,139.6z"/>
	<path d="M769.9,148.7c4.8,1,9.8,1.8,14.5,3.2c3.7,1.1,4.7,3.1,3.3,6.8c-4.9,12.9-12.3,23.3-27.4,25.3c-3.9,0.5-7.8,0.9-11.6,2
		c-7.7,2.2-15.3,4.9-23,7.3c-3.4,1-6.9,1.9-10.4,2.5c-2.5,0.5-4.5-0.7-6.1-2.6c-2.5-3-3.8-6.5-3.9-10.3c-0.2-3.1,1.9-5.1,4.5-5.9
		c4.4-1.3,9-2.1,13.6-3.1c2.2-0.5,4.6-0.9,6.6-1.9c7.3-3.7,14.3-7.8,20.2-13.7c4.1-4.1,8.5-7.8,14.6-8.7c1.6-0.2,3.3-0.3,5-0.4
		C769.8,149.1,769.8,148.9,769.9,148.7z"/>
	<path d="M811.2,137.7c0-5.7,2-7.4,7.8-6.5c1.1,0.2,2.3,0.3,3.4,0.7c7.5,2.7,14.7,1.1,22-1.1c0.9-0.3,1.7-0.6,2.6-0.9
		c8.4-3.5,15.3-0.4,21.6,4.9c2.7,2.3,2.8,3.9,0.3,6.3c-6.7,6.5-14.3,10.6-24.1,7.6c-7.4-2.3-15.1-3.2-22.9-3.4
		c-1.6,0-3.2-0.2-4.7-0.4C812.4,144.1,811.1,142.5,811.2,137.7z"/>
	<path d="M848,108.4c8.3,0,16.3-2,24.3-3.8c6.6-1.4,18.1,3.9,21.5,9.8c1,1.7,0.8,3.3-0.6,4.5c-6.1,5.2-12.6,8.9-20.9,5.7
		c-5.7-2.2-11.5-3.8-17.7-3.9c-2.5-0.1-5.1,0.5-7.6,0.8c-2.5,0.3-5.1,0.8-7.6,0.9c-2.3,0.1-3.7-1.3-4.1-3.5
		c-0.2-1.1-0.4-2.3-0.4-3.5c0.1-4.1,1.5-5.7,5.5-6.5c0.9-0.2,1.8-0.4,2.7-0.5C844.7,108.4,846.3,108.4,848,108.4z"/>
</g>
</svg>
