<?xml version="1.0" encoding="UTF-8" standalone="no"?>
<svg width="1275px" height="793px" viewBox="0 0 1275 793" version="1.1" xmlns="http://www.w3.org/2000/svg" xmlns:xlink="http://www.w3.org/1999/xlink">
    <!-- Generator: Sketch 3.7.1 (28215) - http://www.bohemiancoding.com/sketch -->
    <title>HOPE_logo</title>
    <desc>Created with Sketch.</desc>
    <defs></defs>
    <g id="Page-1" stroke="none" stroke-width="1" fill="none" fill-rule="evenodd">
        <g id="HOPE_logo">
            <g id="Group">
                <path d="M232.1,792.8 C225.6,791.4 219.1,790.3 212.7,788.7 C176.8,779.9 143.2,765.8 112.9,744.4 C71.6,715.1 44.8,676 32.7,626.8 C30.7,618.5 29.5,610.1 30.9,601.6 C32.7,590.6 40.5,584.8 51.5,586 C61.7,587.1 70.7,591.2 79.3,596.5 C95.7,606.7 109,619.7 118.7,636.8 C130.1,656.9 143.7,675.6 157.5,694 C181.6,726 206.1,757.7 230.4,789.6 C231.1,790.5 231.8,791.4 232.5,792.3 C232.3,792.4 232.2,792.6 232.1,792.8 L232.1,792.8 Z" id="Shape" fill="#397434"></path>
                <path d="M0.3,295.3 C13.1,302.8 25.6,310.2 38.2,317.4 C71.5,336.5 104.8,355.5 139.3,372.4 C145.6,375.5 152.2,378.2 158.6,381.1 C178.8,389.9 194,404.1 205,423 C207.9,427.9 209.8,433.2 210,439.1 C210.2,445.8 207.2,450.6 201.1,453.4 C194.2,456.6 186.8,457 179.3,456.4 C131.5,452.5 91.3,433 58.7,398 C31.7,369 12.9,335 0.6,297.4 C0.4,296.9 0.3,296.4 0.2,296 C0.2,295.9 0.3,295.7 0.3,295.3 L0.3,295.3 Z" id="Shape" fill="#B5D96D"></path>
                <path d="M318.6,703 C308.7,702.7 298.8,702.8 288.9,702.1 C266,700.5 243.5,696.2 221.8,688.7 C192,678.5 165.4,663.1 143.9,639.9 C128.8,623.6 116.5,605.3 108.8,584.3 C107.4,580.4 106.6,576.1 106.2,571.9 C105.3,562.1 111.1,555.5 120.8,554.2 C129.6,553 138.1,554.9 146.3,557.7 C163.1,563.4 177.6,572.4 189.5,585.9 C205,603.4 222.5,618.9 240,634.3 C265.5,656.6 291.4,678.6 317.1,700.7 C317.7,701.2 318.3,701.8 318.9,702.3 C318.8,702.5 318.7,702.7 318.6,703 L318.6,703 Z" id="Shape" fill="#397434"></path>
                <path d="M123.5,255.1 C126.4,257.4 129.1,259.4 131.9,261.5 C165.5,287.1 199.2,312.5 234.4,335.9 C241.7,340.8 249.5,345 257,349.7 C275.2,361.2 288.4,376.8 294.6,397.7 C295.5,400.8 295.6,404.3 295.2,407.6 C294.5,413.8 290.4,417.2 284.5,418.7 C277.1,420.6 269.7,419.6 262.5,417.9 C220.7,408.3 187.5,385.7 162.9,350.6 C142.9,322.1 130.3,290.5 123.8,256.4 C123.6,256.1 123.6,255.8 123.5,255.1 L123.5,255.1 Z" id="Shape" fill="#B5D96D"></path>
                <path d="M376.4,650.7 C368.4,650.7 360.9,651.1 353.4,650.6 C329.8,649.3 306.7,644.9 284.4,636.7 C254.4,625.7 228.6,608.6 209,583 C200.1,571.4 192.3,559.1 187.3,545.3 C186,541.6 185.1,537.6 184.7,533.7 C183.7,524.7 188.9,518.4 197.9,517.3 C207,516.1 215.6,518.4 224,521.6 C238.1,527 249.9,535.4 260.4,546.4 C274.3,561 289,574.9 304,588.2 C327.1,608.8 350.9,628.7 374.4,648.9 C374.9,649.3 375.4,649.8 376.4,650.7 L376.4,650.7 Z" id="Shape" fill="#397434"></path>
                <path d="M203.3,220.7 C206.7,223.3 209.7,225.6 212.7,227.9 C243.5,251.5 274.3,275.1 306.7,296.5 C312,300 317.5,303 322.9,306.4 C339.2,316.7 350.8,330.7 356.6,349.1 C357.2,351.1 357.4,353.2 357.5,355.2 C357.7,363.3 353.5,368.2 345.5,369.3 C337.9,370.4 330.6,368.9 323.3,367 C282.2,356 251.8,331.1 230.4,294.8 C217.3,272.6 208.6,248.7 203.6,223.4 C203.5,222.8 203.5,222 203.3,220.7 L203.3,220.7 Z" id="Shape" fill="#B5D96D"></path>
                <path d="M439.5,614.1 C430.6,613.8 421.7,613.8 412.9,613.1 C392.6,611.5 372.9,607.2 353.9,599.8 C316.7,585.4 289.2,560.6 272.2,524.4 C270.1,519.9 268.6,514.9 267.8,509.9 C266.1,499.9 271.5,493.7 281.7,493.3 C291.9,492.9 301.2,496.2 310.2,500.5 C319.8,505.1 328,511.4 335.2,519.3 C349.3,535 365.1,549 381,562.8 C399.8,579.2 418.9,595.4 437.9,611.6 C438.5,612.1 439.1,612.7 439.8,613.2 C439.6,613.5 439.6,613.8 439.5,614.1 L439.5,614.1 Z" id="Shape" fill="#397434"></path>
                <path d="M300.6,195 C301.2,195.8 301.7,196.7 302.4,197.4 C327,221.1 351.6,244.8 376.4,268.3 C382.7,274.2 389.7,279.4 396.4,284.9 C409.4,295.4 417.8,308.7 421.6,324.9 C422,326.6 422.2,328.4 422.2,330.1 C422.6,339.4 417.2,344.6 407.8,344 C401.2,343.6 395.1,341.5 389.1,339 C352.6,323.7 328.4,296.7 313.9,260.4 C306.1,241.1 301.7,221 300,200.3 C299.9,198.7 300,197.2 300,195.6 C300.2,195.4 300.4,195.2 300.6,195 L300.6,195 Z" id="Shape" fill="#B5D96D"></path>
                <path d="M520.4,539.7 C515,541.3 510.3,542.9 505.5,544.1 C486.9,548.9 468.1,551.3 448.9,550.7 C412.4,549.4 380.7,536.7 355.2,510.1 C351.2,505.9 347.6,501.2 344.9,496.1 C340.2,487.4 343.3,480.5 352.7,477.4 C361.6,474.5 370.6,475 379.6,476.4 C388.8,477.9 397.1,481.7 405.4,486 C423.6,495.6 442.1,504.8 460.8,513.5 C479.3,522.1 498.3,530 517,538.1 C517.9,538.6 518.8,539 520.4,539.7 L520.4,539.7 Z" id="Shape" fill="#397434"></path>
                <path d="M365.6,161.7 C367.1,163.5 368.1,164.8 369.2,166 C389.2,190.2 409.3,214.3 430.8,237.2 C435.2,241.9 439.9,246.2 444.5,250.7 C455.2,261 461.4,273.6 463.7,288.2 C463.9,289.5 463.9,290.9 463.8,292.2 C463.7,301.8 457.9,306.7 448.6,304.3 C443,302.9 437.4,300.6 432.2,297.8 C400.9,280.9 382,254.2 372.3,220.5 C367.1,202.4 364.9,184 365.3,165.2 C365.4,164.4 365.5,163.4 365.6,161.7 L365.6,161.7 Z" id="Shape" fill="#B5D96D"></path>
                <path d="M566.8,445.3 C564.1,447.5 561.9,449.4 559.6,451.2 C539.2,466.9 516.7,478.6 491.3,484 C465.2,489.5 440.1,486.2 416.2,474.7 C411.9,472.6 407.9,469.7 404.4,466.5 C399.3,461.7 399.4,455.9 404.5,451.2 C407.7,448.3 411.5,445.7 415.4,444 C427.7,438.5 440.5,437.3 454,439.3 C466.7,441.1 479.5,442.1 492.3,442.8 C516.5,443.9 540.7,444.5 565,445.3 C565.4,445.2 565.7,445.2 566.8,445.3 L566.8,445.3 Z" id="Shape" fill="#397434"></path>
                <path d="M411.6,107.2 C412.3,108.4 412.8,109.2 413.3,110 C429,135 444.6,160.1 460.4,185.1 C463,189.2 466.2,193 469.2,196.9 C477.8,208.6 482.3,221.5 480.8,236.1 C479.9,245 474,248.5 465.6,245.5 C463.1,244.6 460.6,243.5 458.5,242 C454.1,239 449.8,235.8 445.8,232.3 C426.7,215.7 415.7,194.5 410.9,169.9 C407,150 407.4,130 410.9,110.1 C411,109.6 411.1,109.1 411.2,108.6 C411.3,108.3 411.4,108 411.6,107.2 L411.6,107.2 Z" id="Shape" fill="#B5D96D"></path>
                <path d="M589.7,353.8 C586,359.6 582.6,365.6 578.7,371.2 C566,389.5 550.5,404.9 530.7,415.5 C511.8,425.7 491.6,429.3 470.4,427.1 C466.8,426.7 463.2,425.5 460,424 C455.2,421.8 453.4,417.3 455.5,412.5 C457.2,408.8 459.5,405.1 462.3,402.2 C470.5,393.7 480.5,388.5 492.1,385.5 C507.8,381.4 523.2,376.5 538.6,371.3 C554.8,365.9 570.8,359.8 586.9,353.9 C587.6,353.6 588.3,353.4 589,353.1 C589.2,353.4 589.5,353.6 589.7,353.8 L589.7,353.8 Z" id="Shape" fill="#397434"></path>
                <path d="M584.2,53.5 C583.8,58.3 583.6,61.7 583.2,65.1 C582.5,72 579.4,77.8 574.6,82.7 C571.6,85.8 568.5,88.9 565.1,91.6 C559.7,95.9 555.1,100.9 551.2,106.5 C550,108.3 548.7,110.1 547.4,111.7 C542.7,117.7 539.5,124.3 537.9,131.8 C536.9,136.4 535.1,140.9 533.1,145.1 C529.7,151.9 525.8,153.5 518.8,150.7 C515.2,149.3 511.9,147 508.9,144.7 C505.5,142.1 504.5,138.1 505.8,134.1 C507.5,129 509.1,123.7 511.8,119.1 C520.3,104.2 526.5,88.4 530.5,71.7 C535.9,49.3 552.6,39.7 573,34.5 C578.1,33.2 581,35.2 582.3,40.4 C583.2,45 583.6,50 584.2,53.5 L584.2,53.5 Z" id="Shape" fill="#B5D96D"></path>
                <path d="M602.2,129.8 C601.7,134.2 601.3,138.6 600.6,142.9 C599.4,150.1 596.2,156.3 590.9,161.4 C581.5,170.4 573.4,180.4 565.9,190.9 C563.1,194.8 560.9,199.1 558.2,203.1 C555.3,207.5 552.5,211.9 549.1,215.9 C544.6,221.1 540.4,222 534.1,219.2 C530.5,217.6 527.3,215.1 524.2,212.6 C521.3,210.3 520.7,206.8 522.2,203.5 C523.7,200.2 525.5,196.9 527.8,194.1 C530.7,190.5 534.3,187.4 537.4,183.9 C539.3,181.8 541.2,179.6 542.3,177.1 C545.5,170.1 548.6,163 551.1,155.6 C552.8,150.4 553.3,144.7 554.4,139.2 C554.9,136.8 555.5,134.5 556.1,132.2 C558,124.9 561.9,119.1 568.1,114.6 C574.2,110.2 580.5,106.1 587.8,104 C593.8,102.2 596.4,103.5 598.7,109.3 C601.2,116 601.8,122.8 602.2,129.8 L602.2,129.8 Z" id="Shape" fill="#397434"></path>
                <path d="M469.6,59.4 C471.6,67.4 473.4,75 475.3,82.5 C480.9,104.3 486.1,126.1 493.9,147.2 C496.9,155.4 499.4,163.7 498.7,172.5 C498.3,177.1 497.2,181.7 496.2,186.2 C495.9,187.7 495,189.1 494.2,190.5 C491,195.7 486.3,197 481.2,193.6 C478.2,191.6 475.4,189 473.2,186.2 C457.3,166.2 450.4,143.4 452.1,118 C453.5,98.2 459.1,79.6 468.1,62 C468.5,61.3 469,60.6 469.6,59.4 L469.6,59.4 Z" id="Shape" fill="#B5D96D"></path>
                <path d="M595.6,284.6 C594.4,287.7 593.2,290.8 591.9,293.8 C582.5,314.8 569.7,333.2 550.9,347 C534.8,358.8 516.7,364.6 496.8,364.8 C494.3,364.8 491.6,364.3 489.2,363.5 C484.3,361.9 482.1,358 483.7,353.1 C484.7,349.9 486.2,346.7 488.1,344 C494.3,335.4 502.6,329.5 512.4,325.2 C527.7,318.6 542.6,311.4 557.5,304 C569.3,298.1 580.9,291.7 592.6,285.5 L595,284.3 C595.2,284.3 595.4,284.4 595.6,284.6 L595.6,284.6 Z" id="Shape" fill="#397434"></path>
                <path d="M590.1,208.5 C589.5,212.6 589.1,216.8 588.3,220.9 C584.7,239.9 578,257.5 565.8,272.8 C554.6,286.8 540.3,296 523.1,300.9 C521,301.5 518.7,301.7 516.4,301.7 C511.3,301.7 508.1,298.6 508.4,293.6 C508.6,290.4 509.3,287.1 510.4,284.2 C513.9,275.5 519.7,268.7 527.1,262.9 C539.5,253.1 551.5,242.8 563.4,232.4 C571.7,225.2 579.6,217.5 587.6,210 C588.2,209.5 588.8,208.9 589.4,208.4 C589.7,208.4 589.9,208.4 590.1,208.5 L590.1,208.5 Z" id="Shape" fill="#397434"></path>
                <path d="M619.1,36.4 C620.2,34.6 620.8,32.3 622.3,31.2 C625.9,28.6 629.8,26.2 633.9,24.4 C642.8,20.4 651.2,15.6 658.9,9.6 C663.4,6.1 667.7,2.4 673.6,1.5 C682.2,0.1 690.5,1.1 698.5,4.7 C703,6.8 703.8,8.9 701.6,13.5 C698.8,19.4 694.8,24.3 689.6,28.3 C685.8,31.2 681.2,32.1 676.7,32.2 C667.2,32.4 658.1,34.3 649.2,37.7 C647.2,38.5 645.4,39.6 643.6,40.8 C640.2,43 637,45.7 633.5,47.6 C628.1,50.5 624.9,49.5 622,44.1 C620.8,41.9 620.1,39.3 619.1,36.4 L619.1,36.4 Z" id="Shape" fill="#B5D96D"></path>
                <path d="M664.5,45.6 C669.3,46.6 674.3,47.4 679,48.8 C682.7,49.9 683.7,51.9 682.3,55.6 C677.4,68.5 670,78.9 654.9,80.9 C651,81.4 647.1,81.8 643.3,82.9 C635.6,85.1 628,87.8 620.3,90.2 C616.9,91.2 613.4,92.1 609.9,92.7 C607.4,93.2 605.4,92 603.8,90.1 C601.3,87.1 600,83.6 599.9,79.8 C599.7,76.7 601.8,74.7 604.4,73.9 C608.8,72.6 613.4,71.8 618,70.8 C620.2,70.3 622.6,69.9 624.6,68.9 C631.9,65.2 638.9,61.1 644.8,55.2 C648.9,51.1 653.3,47.4 659.4,46.5 C661,46.3 662.7,46.2 664.4,46.1 C664.4,45.9 664.5,45.8 664.5,45.6 L664.5,45.6 Z" id="Shape" fill="#397434"></path>
                <path d="M705.8,34.6 C705.8,28.9 707.8,27.2 713.6,28.1 C714.7,28.3 715.9,28.4 717,28.8 C724.5,31.5 731.7,29.9 739,27.7 C739.9,27.4 740.7,27.1 741.6,26.8 C750,23.3 756.9,26.4 763.2,31.7 C765.9,34 766,35.6 763.5,38 C756.8,44.5 749.2,48.6 739.4,45.6 C732,43.3 724.3,42.4 716.5,42.2 C714.9,42.2 713.3,42 711.8,41.8 C707.1,41 705.8,39.4 705.8,34.6 L705.8,34.6 Z" id="Shape" fill="#397434"></path>
                <path d="M742.6,5.3 C750.9,5.3 758.9,3.3 766.9,1.5 C773.5,0.1 785,5.4 788.4,11.3 C789.4,13 789.2,14.6 787.8,15.8 C781.7,21 775.2,24.7 766.9,21.5 C761.2,19.3 755.4,17.7 749.2,17.6 C746.7,17.5 744.1,18.1 741.6,18.4 C739.1,18.7 736.5,19.2 734,19.3 C731.7,19.4 730.3,18 729.9,15.8 C729.7,14.7 729.5,13.5 729.5,12.3 C729.6,8.2 731,6.6 735,5.8 C735.9,5.6 736.8,5.4 737.7,5.3 C739.3,5.2 741,5.3 742.6,5.3 L742.6,5.3 Z" id="Shape" fill="#B5D96D"></path>
            </g>
            <g id="Group" transform="translate(662.907000, 184.377900)" fill="#495F99">
                <path d="M92.858764,61.883918 C101.197996,61.883918 101.545464,62.231386 101.545464,67.443406 L101.545464,91.9399 C101.545464,110.18197 101.545464,111.91931 90.94769,113.65665 L87.646744,114.177852 C86.60434,115.220256 86.951808,118 87.994212,118.521202 C95.638508,118.173734 101.892932,118 109.016026,118 C115.791652,118 121.698608,118.173734 130.03784,118.521202 C131.080244,118 131.427712,114.872788 130.385308,114.177852 L126.215692,113.65665 C116.13912,112.440512 115.791652,110.18197 115.791652,91.9399 L115.791652,29.39566 C115.791652,11.15359 116.13912,8.54758 126.215692,7.505176 L129.864106,7.157708 C130.90651,6.462772 130.559042,3.33556 129.516638,2.814358 C121.698608,3.161826 115.791652,3.33556 109.016026,3.33556 C101.892932,3.33556 95.985976,3.161826 87.994212,2.814358 C86.951808,3.33556 86.60434,6.462772 87.646744,7.157708 L90.94769,7.505176 C101.197996,8.54758 101.545464,11.15359 101.545464,29.39566 L101.545464,49.37507 C101.545464,54.760824 101.197996,54.934558 92.858764,54.934558 L43.17084,54.934558 C34.831608,54.934558 34.48414,54.760824 34.48414,49.37507 L34.48414,29.39566 C34.48414,11.15359 34.831608,8.54758 44.90818,7.505176 L48.209126,7.157708 C49.25153,6.462772 48.904062,3.33556 47.861658,2.814358 C40.391096,3.161826 34.48414,3.33556 27.708514,3.33556 C20.237952,3.33556 14.330996,2.988092 5.81803,2.814358 C4.775626,3.33556 4.428158,6.462772 5.470562,7.157708 L9.987646,7.505176 C19.021814,8.200112 20.237952,11.15359 20.237952,29.39566 L20.237952,91.9399 C20.237952,110.18197 19.890484,111.91931 10.16138,113.65665 L7.207902,114.177852 C6.165498,115.220256 6.512966,118 7.55537,118.521202 C14.330996,118.347468 20.237952,118 27.708514,118 C34.48414,118 40.391096,118.173734 49.772732,118.521202 C50.815136,118 51.162604,114.872788 50.1202,114.177852 L45.081914,113.65665 C35.35281,112.614246 34.48414,110.18197 34.48414,91.9399 L34.48414,67.443406 C34.48414,62.231386 34.831608,61.883918 43.17084,61.883918 L92.858764,61.883918 Z M159.746354,120.432276 C165.65331,120.432276 169.475458,116.436394 169.475458,110.876906 C169.475458,105.317418 165.65331,100.6266 159.746354,100.6266 C154.186866,100.6266 150.01725,104.96995 150.01725,110.876906 C150.01725,116.783862 154.708068,120.432276 159.746354,120.432276 L159.746354,120.432276 Z M251.304172,120.779744 C284.834834,120.779744 311.58987,95.240846 311.58987,60.146578 C311.58987,29.569394 291.436726,0.555816 251.304172,0.555816 C215.514968,0.555816 189.454868,27.137118 189.454868,61.883918 C189.454868,93.156038 212.735224,120.779744 251.304172,120.779744 L251.304172,120.779744 Z M253.562714,115.39399 C219.337116,115.39399 206.828268,82.037062 206.828268,56.32443 C206.828268,18.276684 230.282358,5.94157 248.350694,5.94157 C281.533888,5.94157 294.21647,36.866222 294.21647,65.532332 C294.21647,99.75793 274.410794,115.39399 253.562714,115.39399 L253.562714,115.39399 Z M341.298384,120.432276 C347.20534,120.432276 351.027488,116.436394 351.027488,110.876906 C351.027488,105.317418 347.20534,100.6266 341.298384,100.6266 C335.738896,100.6266 331.56928,104.96995 331.56928,110.876906 C331.56928,116.783862 336.260098,120.432276 341.298384,120.432276 L341.298384,120.432276 Z M399.499274,14.454536 C399.499274,8.895048 399.673008,8.200112 408.88091,8.200112 C426.949246,8.200112 436.852084,19.145354 436.852084,35.997552 C436.852084,51.11241 430.076458,61.710184 411.313186,65.184864 C410.270782,65.532332 410.270782,68.138342 411.48692,68.659544 C418.610014,68.659544 427.817916,67.095938 435.462212,63.447524 C442.932774,59.79911 452.835612,51.807346 452.835612,35.823818 C452.835612,23.836172 446.928656,14.802004 438.936892,9.763718 C430.771394,4.725432 419.999886,2.814358 405.579964,2.814358 C391.160042,2.814358 380.388534,2.988092 371.180632,4.20423 C369.79076,4.899166 369.617026,7.505176 370.833164,8.54758 L377.087588,9.242516 C384.905618,10.111186 385.253086,13.064664 385.253086,27.832054 L385.253086,91.9399 C385.253086,110.18197 384.905618,112.266778 374.829046,113.65665 L371.180632,114.177852 C370.138228,115.220256 370.485696,118 371.5281,118.521202 C379.172396,118.173734 385.42682,118 392.723648,118 C399.673008,118 405.40623,118.173734 415.309068,118.521202 C416.351472,118 416.69894,115.046522 415.656536,114.177852 L410.965718,113.65665 C399.846742,112.440512 399.499274,110.18197 399.499274,91.9399 L399.499274,14.454536 Z M448.83973,120.432276 C454.746686,120.432276 458.568834,116.436394 458.568834,110.876906 C458.568834,105.317418 454.746686,100.6266 448.83973,100.6266 C443.280242,100.6266 439.110626,104.96995 439.110626,110.876906 C439.110626,116.783862 443.801444,120.432276 448.83973,120.432276 L448.83973,120.432276 Z M492.794432,91.9399 C492.794432,110.18197 491.925762,112.78798 482.022924,113.65665 L476.289702,114.177852 C475.247298,115.220256 475.594766,118 476.63717,118.521202 C486.887476,118.173734 492.794432,118 500.264994,118 L515.901054,118 C531.36338,118 546.825706,118.173734 562.461766,118.521202 C564.720308,113.830384 569.063658,100.452866 570.279796,94.372176 C569.58486,92.80857 567.152584,92.287368 565.936446,93.156038 C561.419362,102.190206 556.728544,108.270896 553.601332,110.008236 C549.779184,111.91931 544.740898,112.614246 531.36338,112.614246 C516.074788,112.614246 512.426374,110.703172 510.341566,108.618364 C507.561822,105.664886 507.04062,99.75793 507.04062,90.550028 L507.04062,66.053534 C507.04062,61.53645 507.561822,61.362716 512.773842,61.362716 L522.850414,61.362716 C529.62604,61.362716 533.795656,61.53645 536.227932,62.231386 C539.702612,63.100056 540.91875,65.706066 541.613686,68.833278 L543.177292,75.608904 C544.045962,76.651308 546.99944,76.651308 547.694376,75.43517 C547.694376,71.613022 546.99944,65.01113 546.99944,58.756706 C546.99944,52.154814 547.694376,45.379188 547.694376,41.209572 C546.99944,39.993434 544.045962,39.993434 543.177292,41.035838 L541.78742,48.158932 C540.91875,52.502282 539.702612,53.544686 537.617804,54.239622 C535.532996,54.934558 530.147242,55.282026 522.850414,55.282026 L512.773842,55.282026 C507.561822,55.282026 507.04062,55.282026 507.04062,50.417474 L507.04062,15.670674 C507.04062,9.068782 507.04062,8.721314 512.25264,8.721314 L524.761488,8.721314 C532.405784,8.721314 537.965272,8.895048 541.613686,9.763718 C550.647854,12.02226 552.21146,18.10295 554.81747,26.268448 C555.68614,27.310852 558.465884,26.963384 559.16082,25.92098 C558.465884,18.276684 557.42348,5.767836 556.381076,2.814358 C554.296268,3.33556 544.045962,3.33556 532.926986,3.33556 L500.264994,3.33556 C493.1419,3.33556 487.234944,3.161826 479.764382,2.814358 C478.721978,3.33556 478.37451,6.462772 479.416914,7.157708 L482.196658,7.505176 C492.446964,8.721314 492.794432,11.327324 492.794432,29.39566 L492.794432,91.9399 Z M593.733886,120.432276 C599.640842,120.432276 603.46299,116.436394 603.46299,110.876906 C603.46299,105.317418 599.640842,100.6266 593.733886,100.6266 C588.174398,100.6266 584.004782,104.96995 584.004782,110.876906 C584.004782,116.783862 588.6956,120.432276 593.733886,120.432276 L593.733886,120.432276 Z" id="H.O.P.E."></path>
                <path d="M7.8108672,213.20289 C7.8108672,221.250867 7.6575724,222.323931 3.2120232,222.783815 L0.9126012,223.013757 C0.4527168,223.473642 0.6060116,224.7 1.065896,224.929942 C5.3581504,224.776647 7.8108672,224.7 11.030058,224.7 L18.0816188,224.7 C25.976301,224.7 33.257804,224.776647 37.1668214,224.929942 C38.239885,222.860462 40.3860122,215.042428 40.3860122,214.199306 C40.3860122,213.662774 38.9297116,213.356185 38.4698272,213.739422 C36.9368792,217.648439 34.9440468,220.407746 33.4110988,221.327514 C32.1847404,222.017341 30.575145,222.323931 24.060116,222.323931 C18.0049714,222.323931 16.5486708,221.404162 15.7055494,220.56104 C14.3258962,219.10474 14.095954,217.111907 14.095954,212.283121 L14.095954,185.609826 C14.095954,177.561849 14.2492488,176.335491 18.7714454,175.952254 L20.610983,175.798959 C21.0708674,175.492369 20.9175726,174.112716 20.4576882,173.882774 C16.6253182,174.036069 14.0193066,174.112716 11.030058,174.112716 C7.964162,174.112716 5.3581504,174.036069 1.065896,173.882774 C0.6060116,174.112716 0.4527168,175.492369 0.9126012,175.798959 L2.8287862,175.952254 C7.6575724,176.335491 7.8108672,177.561849 7.8108672,185.609826 L7.8108672,213.20289 Z M64.5299432,205.078266 C67.749134,205.078266 68.8221976,205.001618 69.0521398,204.541734 C69.2054346,204.235144 69.3587294,203.621965 69.3587294,202.548901 C69.3587294,197.950057 65.066475,193.427861 58.4747986,193.427861 C49.2771106,193.427861 43.0686712,201.322543 43.0686712,210.750173 C43.0686712,214.122659 43.98844,217.725087 46.287862,220.714335 C48.5106366,223.626936 52.419654,225.773064 57.401735,225.773064 C61.3873998,225.773064 66.9060126,223.856879 69.4353768,218.644855 C69.3587294,217.955029 68.8221976,217.495144 68.0557236,217.725087 C65.6796542,220.714335 63.533527,221.480809 61.0041628,221.480809 C52.802891,221.480809 48.2806944,214.889133 48.2806944,207.147745 C48.2806944,205.23156 48.3573418,205.078266 50.3501742,205.078266 L64.5299432,205.078266 Z M49.6603476,202.778844 C49.1238158,202.778844 49.1238158,202.548901 49.1238158,202.395607 C49.2004632,199.866242 53.1094806,195.727283 57.6316772,195.727283 C62.0772264,195.727283 63.533527,198.409942 63.533527,200.556069 C63.533527,201.552485 63.3035848,201.859075 63.0736426,202.01237 C62.4604634,202.472254 60.7742206,202.778844 55.102313,202.778844 L49.6603476,202.778844 Z M79.7827758,212.129826 C74.8773422,213.892717 73.4210416,215.655607 73.4210416,218.644855 C73.4210416,220.790983 74.3408104,222.707168 75.797111,224.010173 C77.1001168,225.159884 78.9396544,225.773064 81.162429,225.773064 C83.3085562,225.773064 84.994799,224.776647 86.6810418,223.856879 C88.2139898,223.013757 89.1337586,222.323931 89.6702904,222.323931 C90.1301748,222.323931 90.5900592,222.93711 90.8966488,223.396994 C92.1996546,225.083237 94.0391922,225.773064 95.8787298,225.773064 C99.6344524,225.773064 102.317111,222.783815 102.317111,222.400578 C102.317111,221.864046 102.087169,221.404162 101.78058,221.404162 C101.550637,221.404162 101.1674,221.710751 100.784163,221.940694 C100.324279,222.170636 99.6344524,222.400578 98.8679784,222.400578 C95.8787298,222.400578 95.1889032,219.258035 95.342198,215.732254 L95.8020824,202.395607 C96.0320246,196.647052 93.3493656,193.427861 87.8307528,193.427861 C82.2354926,193.427861 73.5743364,198.869826 73.5743364,202.855491 C73.5743364,203.545318 73.9575734,203.928555 74.6474,203.928555 C75.797111,203.928555 77.8665908,203.392023 79.0163018,202.472254 C79.629481,202.01237 79.7061284,201.092601 79.7827758,199.866242 C79.9360706,197.490173 82.5420822,196.417109 84.6882094,196.417109 C89.4403482,196.417109 90.360117,200.249479 90.2834696,203.085433 L90.2068222,206.611214 C90.2068222,207.760925 90.0535274,208.450751 88.9038164,208.833988 L79.7827758,212.129826 Z M79.3228914,217.725087 C79.3228914,214.735838 81.545666,213.586127 86.0678626,212.053179 C87.4475158,211.593295 88.7505216,211.286705 89.210406,211.286705 C89.6702904,211.286705 89.97688,211.44 89.97688,212.283121 L89.8235852,216.805318 C89.7469378,218.414913 89.7469378,219.487977 88.827169,220.407746 C88.060695,221.17422 85.6846256,222.323931 84.1516776,222.323931 C80.2426602,222.323931 79.3228914,219.028092 79.3228914,217.725087 L79.3228914,217.725087 Z M134.20243,179.861271 C134.20243,176.488785 134.355725,172.656415 134.432372,170.356993 C134.279077,170.050404 133.972488,169.897109 133.665898,169.897109 C130.906592,171.35341 127.304164,172.503121 125.387979,173.1163 C125.004742,173.346242 125.004742,174.419306 125.387979,174.649248 L126.154453,175.109132 C128.453875,176.488785 128.530522,176.94867 128.530522,181.470866 L128.530522,193.044624 C128.530522,193.657803 128.453875,194.117687 128.070638,194.117687 C127.227516,193.811098 125.541274,193.427861 122.935262,193.427861 C112.511216,193.427861 104.386591,200.326127 104.386591,211.056763 C104.386591,219.10474 110.058499,225.773064 118.56636,225.773064 C122.245435,225.773064 124.851447,224.546705 128.223933,222.247283 L128.530522,222.247283 C128.683817,222.553873 128.683817,223.473642 128.683817,224.623353 L128.683817,225.926358 C128.683817,226.309595 129.067054,226.539538 129.526938,226.539538 C131.673066,225.696416 136.425204,224.546705 139.644395,224.086821 C140.334222,223.703584 140.257574,221.787399 139.721043,221.634104 C138.571332,222.017341 137.268326,222.400578 136.425204,222.400578 C134.279077,222.400578 134.20243,219.564624 134.20243,213.50948 L134.20243,179.861271 Z M128.530522,217.111907 C128.530522,218.338266 128.453875,219.487977 127.99399,219.947861 C126.767632,221.17422 124.16162,222.093988 122.092141,222.093988 C114.580695,222.093988 110.671678,215.502312 110.671678,208.527399 C110.671678,201.859075 114.274106,195.80393 121.249019,195.80393 C124.238268,195.80393 126.53769,197.413526 127.687401,199.023121 C128.223933,199.789595 128.530522,200.479422 128.530522,202.01237 L128.530522,217.111907 Z M164.86139,205.078266 C168.080581,205.078266 169.153644,205.001618 169.383586,204.541734 C169.536881,204.235144 169.690176,203.621965 169.690176,202.548901 C169.690176,197.950057 165.397922,193.427861 158.806245,193.427861 C149.608557,193.427861 143.400118,201.322543 143.400118,210.750173 C143.400118,214.122659 144.319887,217.725087 146.619309,220.714335 C148.842083,223.626936 152.751101,225.773064 157.733182,225.773064 C161.718846,225.773064 167.237459,223.856879 169.766823,218.644855 C169.690176,217.955029 169.153644,217.495144 168.38717,217.725087 C166.011101,220.714335 163.864974,221.480809 161.335609,221.480809 C153.134338,221.480809 148.612141,214.889133 148.612141,207.147745 C148.612141,205.23156 148.688788,205.078266 150.681621,205.078266 L164.86139,205.078266 Z M149.991794,202.778844 C149.455262,202.778844 149.455262,202.548901 149.455262,202.395607 C149.53191,199.866242 153.440927,195.727283 157.963124,195.727283 C162.408673,195.727283 163.864974,198.409942 163.864974,200.556069 C163.864974,201.552485 163.635031,201.859075 163.405089,202.01237 C162.79191,202.472254 161.105667,202.778844 155.43376,202.778844 L149.991794,202.778844 Z M178.581274,216.115491 C178.581274,221.634104 178.504627,222.323931 175.668673,222.783815 L174.212373,223.013757 C173.675841,223.396994 173.829136,224.7 174.365667,224.929942 C176.3585,224.776647 178.657922,224.7 181.417228,224.7 C184.099887,224.7 186.322662,224.776647 189.92509,224.929942 C190.461621,224.7 190.614916,223.396994 190.078384,223.013757 L187.319078,222.783815 C184.406477,222.553873 184.253182,221.634104 184.253182,216.115491 L184.253182,205.691445 C184.253182,203.085433 184.483124,200.862659 185.249598,199.789595 C185.862777,198.946474 186.782546,198.256647 188.008905,198.256647 C189.081968,198.256647 190.231679,198.716531 191.38139,199.483005 C191.917922,199.789595 192.301159,200.019537 193.067633,200.019537 C194.293991,200.019537 196.363471,199.023121 196.363471,196.493757 C196.363471,194.654219 194.830523,193.427861 192.914338,193.427861 C190.078384,193.427861 187.165783,195.80393 184.483124,198.026705 C184.329829,197.950057 184.253182,197.720115 184.253182,197.336878 L184.253182,192.891329 C184.253182,192.584739 184.02324,192.431445 183.640003,192.354797 C181.723818,193.504508 177.661506,195.497341 175.898615,196.11052 C175.515378,196.340462 175.515378,197.183583 175.821968,197.490173 L176.511795,197.950057 C178.581274,199.329711 178.581274,199.712948 178.581274,202.702196 L178.581274,216.115491 Z M210.773182,193.427861 C204.94798,193.427861 200.349136,196.570404 200.349136,202.165664 C200.349136,206.381271 203.491679,209.06393 207.937229,211.593295 C210.773182,213.20289 213.839078,215.119075 213.839078,218.644855 C213.839078,221.940694 211.463009,223.550289 208.703703,223.550289 C204.334801,223.550289 201.882084,219.871214 200.579078,215.655607 C200.195841,215.195722 199.199425,215.27237 198.816188,215.732254 C198.662893,218.261618 199.122778,222.017341 199.735957,223.473642 C201.652142,225.00659 204.334801,225.773064 207.937229,225.773064 C213.609136,225.773064 218.974454,222.860462 218.974454,217.03526 C218.974454,211.593295 215.218732,208.987283 211.156419,206.687861 C208.47376,205.154913 205.25457,203.46867 205.25457,200.326127 C205.25457,197.56682 207.170755,195.650635 210.160003,195.650635 C213.302547,195.650635 215.601969,197.87341 216.904974,201.245896 C217.288211,201.70578 218.437922,201.552485 218.744512,201.015953 C218.744512,198.946474 218.20798,196.493757 217.518154,194.807514 C216.828327,194.194335 213.992373,193.427861 210.773182,193.427861 L210.773182,193.427861 Z M228.018847,216.115491 C228.018847,221.634104 227.9422,222.477225 225.106246,222.783815 L223.190061,223.013757 C222.653529,223.396994 222.806824,224.7 223.343356,224.929942 C225.796073,224.776647 228.095495,224.7 230.854801,224.7 C233.53746,224.7 235.760235,224.776647 238.059657,224.929942 C238.596189,224.7 238.749483,223.320347 238.212952,223.013757 L236.603356,222.783815 C233.84405,222.400578 233.690755,221.634104 233.690755,216.115491 L233.690755,203.238728 C233.690755,200.556069 233.920697,200.172832 235.30035,199.023121 C236.680004,197.87341 238.672836,196.953641 241.278848,196.953641 C246.184281,196.953641 248.560351,200.249479 248.560351,205.154913 L248.560351,216.115491 C248.560351,221.634104 248.483703,222.323931 245.647749,222.783815 L244.114801,223.013757 C243.57827,223.396994 243.731564,224.7 244.268096,224.929942 C246.337576,224.776647 248.636998,224.7 251.396304,224.7 C254.078963,224.7 256.301738,224.776647 259.061044,224.929942 C259.597576,224.7 259.750871,223.396994 259.214339,223.013757 L257.144859,222.783815 C254.385553,222.477225 254.232258,221.634104 254.232258,216.115491 L254.232258,203.315375 C254.232258,197.950057 251.626247,193.427861 244.344744,193.427861 C240.435726,193.427861 236.756651,195.267398 233.997345,197.413526 C233.767402,197.260231 233.690755,196.647052 233.690755,195.957225 L233.690755,179.861271 C233.690755,176.488785 233.84405,172.656415 233.920697,170.356993 C233.767402,170.050404 233.460813,169.897109 233.154223,169.897109 C230.394917,171.35341 226.792489,172.503121 224.876304,173.1163 C224.493067,173.346242 224.493067,174.419306 224.876304,174.649248 L225.642778,175.109132 C227.9422,176.488785 228.018847,176.94867 228.018847,181.470866 L228.018847,216.115491 Z M268.258732,216.115491 C268.258732,221.634104 268.182085,222.400578 265.346131,222.783815 L263.736536,223.013757 C263.200004,223.396994 263.353299,224.7 263.889831,224.929942 C266.035958,224.776647 268.33538,224.7 271.094686,224.7 C273.777345,224.7 276.00012,224.776647 278.299542,224.929942 C278.836074,224.7 278.989368,223.396994 278.452837,223.013757 L276.843241,222.783815 C274.083935,222.400578 273.93064,221.634104 273.93064,216.115491 L273.93064,202.318959 C273.93064,199.176416 274.083935,195.497341 274.23723,192.814682 C274.160582,192.508092 273.853993,192.354797 273.470756,192.354797 C271.707865,193.504508 267.338964,195.497341 265.576073,196.11052 C265.192836,196.340462 265.192836,197.183583 265.499426,197.490173 L266.189253,197.950057 C268.258732,199.329711 268.258732,199.712948 268.258732,202.702196 L268.258732,216.115491 Z M270.788097,176.872022 C268.488675,176.872022 266.649137,178.481618 266.649137,181.010982 C266.649137,183.080462 268.182085,184.843352 270.558154,184.843352 C272.704282,184.843352 274.620467,183.616994 274.620467,180.857687 C274.620467,178.71156 273.087519,176.872022 270.788097,176.872022 L270.788097,176.872022 Z M286.960698,235.660578 C286.960698,241.179191 286.884051,241.945665 284.048097,242.328902 L282.438501,242.558844 C281.90197,242.942081 282.055264,244.245087 282.591796,244.475029 C284.737923,244.321734 287.037345,244.245087 289.796652,244.245087 C292.479311,244.245087 294.702085,244.321734 298.381161,244.475029 C298.917692,244.245087 299.070987,242.942081 298.534455,242.558844 L295.545207,242.175607 C292.7859,241.79237 292.632606,241.102544 292.632606,235.660578 L292.632606,227.612601 C292.632606,226.003006 293.015843,225.619769 293.705669,225.466474 C294.395496,225.619769 296.541623,225.773064 297.921276,225.773064 C308.805207,225.773064 316.623242,218.108324 316.623242,207.454335 C316.623242,199.712948 311.641161,193.427861 303.899773,193.427861 C298.99434,193.427861 294.165554,196.570404 293.169137,197.030289 C292.632606,197.030289 292.479311,196.570404 292.479311,196.033872 C292.479311,195.037456 292.632606,193.887745 292.7859,192.508092 C292.632606,192.124855 292.326016,191.97156 291.866132,191.97156 C289.873299,193.427861 286.270871,195.267398 284.278039,196.11052 C283.894802,196.340462 283.894802,197.183583 284.201392,197.490173 L284.891218,197.950057 C286.960698,199.329711 286.960698,199.712948 286.960698,202.702196 L286.960698,235.660578 Z M292.632606,203.77526 C292.632606,201.245896 292.862548,200.096185 293.552374,199.253063 C294.395496,198.333294 296.771565,197.106936 300.067403,197.106936 C306.965669,197.106936 310.414802,203.315375 310.414802,209.447167 C310.414802,217.418497 306.735727,223.243699 300.45064,223.243699 C298.841045,223.243699 296.464976,222.707168 294.932028,221.557457 C293.39908,220.331098 292.632606,219.411329 292.632606,216.958613 L292.632606,203.77526 Z M373.035728,217.34185 C373.648907,219.181387 374.032144,220.56104 374.032144,221.404162 C374.032144,222.170636 372.959081,222.63052 371.349485,222.783815 L369.126711,223.013757 C368.590179,223.396994 368.666826,224.623353 369.280006,224.929942 C371.50278,224.853295 374.415381,224.7 378.094457,224.7 C381.54359,224.7 384.226249,224.776647 387.368792,224.929942 C387.752029,224.623353 387.905324,223.396994 387.368792,223.013757 L385.299312,222.783815 C382.003474,222.400578 381.007058,221.250867 378.784283,214.659191 L368.283589,183.846936 C367.133878,180.47445 365.90752,176.94867 364.911104,173.576184 C364.757809,173.039652 364.221277,172.886358 363.761393,172.886358 C362.918271,173.882774 361.615266,175.262427 359.775728,175.798959 C360.00567,177.025317 359.545786,178.481618 358.472722,181.240924 L350.654687,201.935722 C347.435497,210.520231 345.289369,215.502312 343.909716,219.028092 C342.836653,221.787399 341.15041,222.63052 339.310872,222.783815 L336.781508,223.013757 C336.321624,223.396994 336.474918,224.623353 336.934803,224.929942 C339.004283,224.853295 341.763589,224.7 344.292953,224.7 C347.895381,224.776647 350.27145,224.776647 352.264283,224.929942 C352.954109,224.623353 352.954109,223.396994 352.417578,223.013757 L349.888213,222.783815 C348.048676,222.63052 347.665439,222.170636 347.665439,221.250867 C347.665439,220.407746 348.201971,218.338266 349.351682,214.889133 L352.034341,206.841156 C352.570872,205.23156 353.030757,205.001618 354.946942,205.001618 L366.520699,205.001618 C368.820121,205.001618 369.126711,205.23156 369.663243,206.917803 L373.035728,217.34185 Z M359.315844,186.759537 C360.158965,184.460115 360.925439,182.620577 361.155381,182.23734 L361.308676,182.23734 C361.76856,183.157109 362.458387,185.226589 363.071566,187.066127 L367.210526,199.559653 C367.900352,201.629133 367.747058,201.935722 365.524283,201.935722 L356.096653,201.935722 C353.950526,201.935722 353.873878,201.859075 354.487057,200.096185 L359.315844,186.759537 Z M406.607289,193.427861 C393.883821,193.427861 388.058619,202.242312 388.058619,210.520231 C388.058619,215.502312 389.821509,219.258035 392.504168,221.864046 C395.186827,224.470058 398.942549,225.773064 403.004862,225.773064 C407.450411,225.773064 413.198966,223.626936 415.804977,217.955029 C415.72833,217.265202 415.038503,216.72867 414.425324,216.881965 C412.662434,219.487977 410.363012,221.480809 405.917463,221.480809 C397.716191,221.480809 393.577231,214.352601 393.577231,208.374104 C393.577231,200.249479 398.789255,196.033872 404.154573,196.033872 C407.297116,196.033872 410.13307,198.026705 411.819313,200.096185 C412.125902,200.479422 412.509139,200.632716 412.892376,200.632716 C413.812145,200.632716 414.578619,199.176416 414.578619,197.796763 C414.578619,196.493757 414.042087,195.267398 413.428908,194.730867 C411.359428,193.811098 408.37018,193.427861 406.607289,193.427861 L406.607289,193.427861 Z M425.002665,212.129826 C420.097232,213.892717 418.640931,215.655607 418.640931,218.644855 C418.640931,220.790983 419.5607,222.707168 421.017001,224.010173 C422.320006,225.159884 424.159544,225.773064 426.382319,225.773064 C428.528446,225.773064 430.214689,224.776647 431.900931,223.856879 C433.433879,223.013757 434.353648,222.323931 434.89018,222.323931 C435.350064,222.323931 435.809949,222.93711 436.116538,223.396994 C437.419544,225.083237 439.259082,225.773064 441.098619,225.773064 C444.854342,225.773064 447.537001,222.783815 447.537001,222.400578 C447.537001,221.864046 447.307059,221.404162 447.000469,221.404162 C446.770527,221.404162 446.38729,221.710751 446.004053,221.940694 C445.544169,222.170636 444.854342,222.400578 444.087868,222.400578 C441.098619,222.400578 440.408793,219.258035 440.562088,215.732254 L441.021972,202.395607 C441.251914,196.647052 438.569255,193.427861 433.050642,193.427861 C427.455382,193.427861 418.794226,198.869826 418.794226,202.855491 C418.794226,203.545318 419.177463,203.928555 419.86729,203.928555 C421.017001,203.928555 423.08648,203.392023 424.236191,202.472254 C424.849371,202.01237 424.926018,201.092601 425.002665,199.866242 C425.15596,197.490173 427.761972,196.417109 429.908099,196.417109 C434.660238,196.417109 435.580007,200.249479 435.503359,203.085433 L435.426712,206.611214 C435.426712,207.760925 435.273417,208.450751 434.123706,208.833988 L425.002665,212.129826 Z M424.542781,217.725087 C424.542781,214.735838 426.765556,213.586127 431.287752,212.053179 C432.667405,211.593295 433.970411,211.286705 434.430296,211.286705 C434.89018,211.286705 435.19677,211.44 435.19677,212.283121 L435.043475,216.805318 C434.966827,218.414913 434.966827,219.487977 434.047059,220.407746 C433.280585,221.17422 430.904515,222.323931 429.371567,222.323931 C425.46255,222.323931 424.542781,219.028092 424.542781,217.725087 L424.542781,217.725087 Z M479.422319,179.861271 C479.422319,176.488785 479.575614,172.656415 479.652262,170.356993 C479.498967,170.050404 479.192377,169.897109 478.885788,169.897109 C476.126481,171.35341 472.524053,172.503121 470.607868,173.1163 C470.224631,173.346242 470.224631,174.419306 470.607868,174.649248 L471.374342,175.109132 C473.673764,176.488785 473.750412,176.94867 473.750412,181.470866 L473.750412,193.044624 C473.750412,193.657803 473.673764,194.117687 473.290527,194.117687 C472.447406,193.811098 470.761163,193.427861 468.155152,193.427861 C457.731105,193.427861 449.606481,200.326127 449.606481,211.056763 C449.606481,219.10474 455.278388,225.773064 463.78625,225.773064 C467.465325,225.773064 470.071337,224.546705 473.443822,222.247283 L473.750412,222.247283 C473.903707,222.553873 473.903707,223.473642 473.903707,224.623353 L473.903707,225.926358 C473.903707,226.309595 474.286944,226.539538 474.746828,226.539538 C476.892955,225.696416 481.645094,224.546705 484.864285,224.086821 C485.554111,223.703584 485.477464,221.787399 484.940932,221.634104 C483.791221,222.017341 482.488215,222.400578 481.645094,222.400578 C479.498967,222.400578 479.422319,219.564624 479.422319,213.50948 L479.422319,179.861271 Z M473.750412,217.111907 C473.750412,218.338266 473.673764,219.487977 473.21388,219.947861 C471.987522,221.17422 469.38151,222.093988 467.31203,222.093988 C459.800585,222.093988 455.891568,215.502312 455.891568,208.527399 C455.891568,201.859075 459.493995,195.80393 466.468909,195.80393 C469.458157,195.80393 471.757579,197.413526 472.90729,199.023121 C473.443822,199.789595 473.750412,200.479422 473.750412,202.01237 L473.750412,217.111907 Z M510.081279,205.078266 C513.30047,205.078266 514.373534,205.001618 514.603476,204.541734 C514.756771,204.235144 514.910066,203.621965 514.910066,202.548901 C514.910066,197.950057 510.617811,193.427861 504.026135,193.427861 C494.828447,193.427861 488.620007,201.322543 488.620007,210.750173 C488.620007,214.122659 489.539776,217.725087 491.839198,220.714335 C494.061973,223.626936 497.97099,225.773064 502.953071,225.773064 C506.938736,225.773064 512.457349,223.856879 514.986713,218.644855 C514.910066,217.955029 514.373534,217.495144 513.60706,217.725087 C511.23099,220.714335 509.084863,221.480809 506.555499,221.480809 C498.354227,221.480809 493.832031,214.889133 493.832031,207.147745 C493.832031,205.23156 493.908678,205.078266 495.90151,205.078266 L510.081279,205.078266 Z M495.211684,202.778844 C494.675152,202.778844 494.675152,202.548901 494.675152,202.395607 C494.751799,199.866242 498.660817,195.727283 503.183013,195.727283 C507.628563,195.727283 509.084863,198.409942 509.084863,200.556069 C509.084863,201.552485 508.854921,201.859075 508.624979,202.01237 C508.0118,202.472254 506.325557,202.778844 500.653649,202.778844 L495.211684,202.778844 Z M564.424286,216.115491 C564.424286,221.634104 564.347639,222.323931 561.511685,222.783815 L560.132032,223.013757 C559.5955,223.396994 559.748795,224.7 560.285326,224.929942 C562.431454,224.776647 564.500933,224.7 567.26024,224.7 C569.942899,224.7 572.165673,224.776647 574.695038,224.929942 C575.231569,224.7 575.384864,223.396994 574.848332,223.013757 L573.008795,222.783815 C570.249488,222.400578 570.096194,221.634104 570.096194,216.115491 L570.096194,202.932138 C570.096194,197.643468 567.106945,193.427861 560.975153,193.427861 C557.372725,193.427861 553.617003,195.190751 550.551107,197.336878 C549.86128,197.796763 549.324748,198.103352 548.634922,197.950057 C546.488794,194.807514 544.342667,193.427861 540.510297,193.427861 C536.831222,193.427861 533.228794,195.267398 530.316193,197.336878 C529.779661,197.336878 529.473072,196.953641 529.473072,196.493757 C529.473072,195.80393 529.473072,194.654219 529.626366,192.891329 C529.473072,192.508092 529.089835,192.354797 528.783245,192.354797 C527.250297,193.504508 522.881395,195.497341 521.118505,196.11052 C520.735268,196.340462 520.735268,197.183583 521.041858,197.490173 L521.731684,197.950057 C523.801164,199.329711 523.801164,199.712948 523.801164,202.702196 L523.801164,216.115491 C523.801164,221.634104 523.724517,222.400578 520.888563,222.783815 L519.049025,223.013757 C518.512493,223.396994 518.665788,224.7 519.20232,224.929942 C521.578389,224.776647 523.877811,224.7 526.637118,224.7 C529.319777,224.7 531.542551,224.776647 533.612031,224.929942 C534.148563,224.7 534.301858,223.396994 533.765326,223.013757 L532.385673,222.783815 C529.626366,222.323931 529.473072,221.634104 529.473072,216.115491 L529.473072,204.235144 C529.473072,201.782427 529.856309,200.786011 530.622783,199.866242 C531.772494,198.486589 533.918621,197.106936 537.061164,197.106936 C541.813303,197.106936 544.112725,199.866242 544.112725,205.001618 L544.112725,216.115491 C544.112725,221.634104 544.036078,222.323931 541.200124,222.783815 L539.820471,223.013757 C539.283939,223.396994 539.437234,224.7 539.973765,224.929942 C542.119893,224.776647 544.189372,224.7 546.948679,224.7 C549.631338,224.7 551.854112,224.776647 554.153534,224.929942 C554.690066,224.7 554.843361,223.396994 554.306829,223.013757 L552.697234,222.783815 C549.937927,222.400578 549.784633,221.634104 549.784633,216.115491 L549.784633,204.388439 C549.784633,201.70578 550.014575,200.939306 550.934344,199.789595 C552.007407,198.409942 554.383477,197.106936 557.296078,197.106936 C562.124864,197.106936 564.424286,199.789595 564.424286,205.001618 L564.424286,216.115491 Z M581.823246,243.785203 C583.586136,243.785203 585.425674,243.095376 586.728679,240.182775 C590.484402,231.828208 596.769489,218.491561 599.298853,213.356185 L603.591107,204.541734 C606.197119,199.099768 607.576772,196.876994 610.106136,196.417109 L611.409142,196.187167 C611.945674,195.727283 611.869027,194.577572 611.255847,194.270982 C609.10972,194.424277 607.34683,194.500924 605.430645,194.500924 C603.437813,194.500924 601.138391,194.424277 598.685674,194.270982 C598.072495,194.500924 597.995847,195.80393 598.532379,196.187167 L600.908448,196.570404 C602.288102,196.800346 602.747986,197.336878 602.747986,197.87341 C602.747986,198.716531 601.75157,201.552485 600.065327,205.53815 L597.459315,211.593295 C596.079662,214.735838 594.853304,217.111907 594.623362,217.265202 C594.316772,217.111907 592.860471,213.049595 592.400587,211.823237 L589.94787,204.771676 C589.487986,203.46867 587.725096,198.486589 587.725096,197.56682 C587.725096,197.030289 588.338275,196.800346 589.411338,196.570404 L591.327523,196.187167 C591.864055,195.80393 591.787408,194.500924 591.174229,194.270982 C588.721512,194.424277 586.575385,194.500924 584.505905,194.500924 C581.976541,194.500924 579.677119,194.424277 577.224402,194.270982 C576.611223,194.500924 576.534575,195.80393 576.99446,196.187167 L578.910645,196.570404 C581.593304,197.106936 582.129835,198.946474 583.432841,202.548901 L589.411338,218.951445 C590.407755,221.787399 590.714344,222.707168 590.714344,224.240116 C590.714344,225.313179 590.177812,226.922775 589.94787,227.535954 C589.258044,229.375491 587.725096,232.594682 585.502321,236.043815 C584.965789,236.886937 584.199315,237.423468 582.972957,237.423468 L581.516656,237.423468 C579.830413,237.423468 578.45076,238.419885 578.45076,240.489364 C578.45076,242.405549 579.600471,243.785203 581.823246,243.785203 L581.823246,243.785203 Z" id="Leadership-Academy"></path>
            </g>
            <path d="M324.174441,763.479146 L331.001275,782.631184 L337.901913,763.479146 L345.503685,763.479146 L345.503685,790.232956 L340.595745,790.232956 L340.595745,768.645399 L333.178482,790.232956 L328.897872,790.232956 L321.443707,768.645399 L321.443707,790.232956 L316.535767,790.232956 L316.535767,763.479146 L324.174441,763.479146 Z M289.191528,767.944265 L289.191528,763.479146 L311.996845,763.479146 L311.996845,767.944265 L303.251117,767.944265 L303.251117,790.232956 L297.937256,790.232956 L297.937256,767.944265 L289.191528,767.944265 Z" id="™" fill="#495F99"></path>
        </g>
    </g>
</svg>