<?xml version="1.0" encoding="UTF-8" standalone="no"?>
<svg width="115px" height="90px" viewBox="0 0 115 90" version="1.1" xmlns="http://www.w3.org/2000/svg" xmlns:xlink="http://www.w3.org/1999/xlink" xmlns:sketch="http://www.bohemiancoding.com/sketch/ns">
    <!-- Generator: Sketch 3.4.1 (15681) - http://www.bohemiancoding.com/sketch -->
    <title>“</title>
    <desc>Created with Sketch.</desc>
    <defs></defs>
    <g id="Page-1" stroke="none" stroke-width="1" fill="none" fill-rule="evenodd" sketch:type="MSPage">
        <g id="Square" sketch:type="MSArtboardGroup" transform="translate(-3.000000, -3.000000)" fill-opacity="0.05" fill="#333333">
            <path d="M98.831629,93 C114.024448,93 117.530483,82.9137931 117.530483,77.0948276 C117.530483,69.7241379 112.46621,66.6206897 107.012378,66.2327586 C99.6107479,65.8448276 87.5344044,59.25 87.5344044,44.5086207 C87.5344044,28.6034483 102.727224,17.7413793 117.140924,11.1465517 C119.088721,8.43103448 117.530483,4.55172414 114.414008,3 C89.8717612,10.3706897 68.83555,28.9913793 68.83555,55.7586207 C68.83555,75.9310345 82.8596908,93 98.831629,93 L98.831629,93 Z M32.996079,93 C48.1888982,93 51.6949334,82.9137931 51.6949334,77.0948276 C51.6949334,69.7241379 46.6306603,66.6206897 41.1768278,66.2327586 C33.7751979,65.8448276 21.6988544,59.25 21.6988544,44.5086207 C21.6988544,28.6034483 36.8916737,17.7413793 51.3053739,11.1465517 C53.2531713,8.43103448 51.6949334,4.55172414 48.5784577,3 C24.0362112,10.3706897 3,28.9913793 3,55.7586207 C3,75.9310345 17.0241408,93 32.996079,93 L32.996079,93 Z" id="“" sketch:type="MSShapeGroup"></path>
        </g>
    </g>
</svg>